0
SECTION
2
ENTITIES
0
LINE
8
Modulos
10
6.899256345729215
20
-25.212144152887895
30
12
11
5.157702846984183
21
-21.007662076619322
31
12
0
LINE
8
Modulos
10
6.899256345729215
20
-25.212144152887895
30
18
11
5.157702846984183
21
-21.007662076619322
31
18
0
LINE
8
Modulos
10
6.899256345729215
20
-25.212144152887895
30
12
11
6.899256345729215
21
-25.212144152887895
31
18
0
LINE
8
Modulos
10
5.157702846984183
20
-21.007662076619322
30
12
11
0.9532207707156107
21
-19.26610857787429
31
12
0
LINE
8
Modulos
10
5.157702846984183
20
-21.007662076619322
30
18
11
0.9532207707156107
21
-19.26610857787429
31
18
0
LINE
8
Modulos
10
5.157702846984183
20
-21.007662076619322
30
12
11
5.157702846984183
21
-21.007662076619322
31
18
0
LINE
8
Modulos
10
0.9532207707156107
20
-19.26610857787429
30
12
11
-3.251261305552962
21
-21.007662076619322
31
12
0
LINE
8
Modulos
10
0.9532207707156107
20
-19.26610857787429
30
18
11
-3.251261305552962
21
-21.007662076619322
31
18
0
LINE
8
Modulos
10
0.9532207707156107
20
-19.26610857787429
30
12
11
0.9532207707156107
21
-19.26610857787429
31
18
0
LINE
8
Modulos
10
-3.251261305552962
20
-21.007662076619322
30
12
11
-4.9928148042979945
21
-25.212144152887895
31
12
0
LINE
8
Modulos
10
-3.251261305552962
20
-21.007662076619322
30
18
11
-4.9928148042979945
21
-25.212144152887895
31
18
0
LINE
8
Modulos
10
-3.251261305552962
20
-21.007662076619322
30
12
11
-3.251261305552962
21
-21.007662076619322
31
18
0
LINE
8
Modulos
10
-4.9928148042979945
20
-25.212144152887895
30
12
11
-3.251261305552963
21
-29.416626229156467
31
12
0
LINE
8
Modulos
10
-4.9928148042979945
20
-25.212144152887895
30
18
11
-3.251261305552963
21
-29.416626229156467
31
18
0
LINE
8
Modulos
10
-4.9928148042979945
20
-25.212144152887895
30
12
11
-4.9928148042979945
21
-25.212144152887895
31
18
0
LINE
8
Modulos
10
-3.251261305552963
20
-29.416626229156467
30
12
11
0.9532207707156093
21
-31.158179727901498
31
12
0
LINE
8
Modulos
10
-3.251261305552963
20
-29.416626229156467
30
18
11
0.9532207707156093
21
-31.158179727901498
31
18
0
LINE
8
Modulos
10
-3.251261305552963
20
-29.416626229156467
30
12
11
-3.251261305552963
21
-29.416626229156467
31
18
0
LINE
8
Modulos
10
0.9532207707156093
20
-31.158179727901498
30
12
11
5.157702846984182
21
-29.416626229156467
31
12
0
LINE
8
Modulos
10
0.9532207707156093
20
-31.158179727901498
30
18
11
5.157702846984182
21
-29.416626229156467
31
18
0
LINE
8
Modulos
10
0.9532207707156093
20
-31.158179727901498
30
12
11
0.9532207707156093
21
-31.158179727901498
31
18
0
LINE
8
Modulos
10
5.157702846984182
20
-29.416626229156467
30
12
11
6.899256345729215
21
-25.212144152887895
31
12
0
LINE
8
Modulos
10
5.157702846984182
20
-29.416626229156467
30
18
11
6.899256345729215
21
-25.212144152887895
31
18
0
LINE
8
Modulos
10
5.157702846984182
20
-29.416626229156467
30
12
11
5.157702846984182
21
-29.416626229156467
31
18
0
LINE
8
Modulos
10
22.159991607199537
20
-18.734935204935844
30
6
11
20.418438108454502
21
-14.530453128667272
31
6
0
LINE
8
Modulos
10
22.159991607199537
20
-18.734935204935844
30
12
11
20.418438108454502
21
-14.530453128667272
31
12
0
LINE
8
Modulos
10
22.159991607199537
20
-18.734935204935844
30
6
11
22.159991607199537
21
-18.734935204935844
31
12
0
LINE
8
Modulos
10
20.418438108454502
20
-14.530453128667272
30
6
11
16.21395603218593
21
-12.78889962992224
31
6
0
LINE
8
Modulos
10
20.418438108454502
20
-14.530453128667272
30
12
11
16.21395603218593
21
-12.78889962992224
31
12
0
LINE
8
Modulos
10
20.418438108454502
20
-14.530453128667272
30
6
11
20.418438108454502
21
-14.530453128667272
31
12
0
LINE
8
Modulos
10
16.21395603218593
20
-12.78889962992224
30
6
11
12.009473955917358
21
-14.530453128667272
31
6
0
LINE
8
Modulos
10
16.21395603218593
20
-12.78889962992224
30
12
11
12.009473955917358
21
-14.530453128667272
31
12
0
LINE
8
Modulos
10
16.21395603218593
20
-12.78889962992224
30
6
11
16.21395603218593
21
-12.78889962992224
31
12
0
LINE
8
Modulos
10
12.009473955917358
20
-14.530453128667272
30
6
11
10.267920457172325
21
-18.734935204935844
31
6
0
LINE
8
Modulos
10
12.009473955917358
20
-14.530453128667272
30
12
11
10.267920457172325
21
-18.734935204935844
31
12
0
LINE
8
Modulos
10
12.009473955917358
20
-14.530453128667272
30
6
11
12.009473955917358
21
-14.530453128667272
31
12
0
LINE
8
Modulos
10
10.267920457172325
20
-18.734935204935844
30
6
11
12.009473955917358
21
-22.939417281204417
31
6
0
LINE
8
Modulos
10
10.267920457172325
20
-18.734935204935844
30
12
11
12.009473955917358
21
-22.939417281204417
31
12
0
LINE
8
Modulos
10
10.267920457172325
20
-18.734935204935844
30
6
11
10.267920457172325
21
-18.734935204935844
31
12
0
LINE
8
Modulos
10
12.009473955917358
20
-22.939417281204417
30
6
11
16.21395603218593
21
-24.680970779949448
31
6
0
LINE
8
Modulos
10
12.009473955917358
20
-22.939417281204417
30
12
11
16.21395603218593
21
-24.680970779949448
31
12
0
LINE
8
Modulos
10
12.009473955917358
20
-22.939417281204417
30
6
11
12.009473955917358
21
-22.939417281204417
31
12
0
LINE
8
Modulos
10
16.21395603218593
20
-24.680970779949448
30
6
11
20.418438108454502
21
-22.939417281204417
31
6
0
LINE
8
Modulos
10
16.21395603218593
20
-24.680970779949448
30
12
11
20.418438108454502
21
-22.939417281204417
31
12
0
LINE
8
Modulos
10
16.21395603218593
20
-24.680970779949448
30
6
11
16.21395603218593
21
-24.680970779949448
31
12
0
LINE
8
Modulos
10
20.418438108454502
20
-22.939417281204417
30
6
11
22.159991607199537
21
-18.734935204935844
31
6
0
LINE
8
Modulos
10
20.418438108454502
20
-22.939417281204417
30
12
11
22.159991607199537
21
-18.734935204935844
31
12
0
LINE
8
Modulos
10
20.418438108454502
20
-22.939417281204417
30
6
11
20.418438108454502
21
-22.939417281204417
31
12
0
LINE
8
Modulos
10
30.995805410845954
20
16.909991517378053
30
0
11
29.25425191210092
21
21.114473593646625
31
0
0
LINE
8
Modulos
10
30.995805410845954
20
16.909991517378053
30
6
11
29.25425191210092
21
21.114473593646625
31
6
0
LINE
8
Modulos
10
30.995805410845954
20
16.909991517378053
30
0
11
30.995805410845954
21
16.909991517378053
31
6
0
LINE
8
Modulos
10
29.25425191210092
20
21.114473593646625
30
0
11
25.049769835832347
21
22.856027092391656
31
0
0
LINE
8
Modulos
10
29.25425191210092
20
21.114473593646625
30
6
11
25.049769835832347
21
22.856027092391656
31
6
0
LINE
8
Modulos
10
29.25425191210092
20
21.114473593646625
30
0
11
29.25425191210092
21
21.114473593646625
31
6
0
LINE
8
Modulos
10
25.049769835832347
20
22.856027092391656
30
0
11
20.845287759563774
21
21.114473593646625
31
0
0
LINE
8
Modulos
10
25.049769835832347
20
22.856027092391656
30
6
11
20.845287759563774
21
21.114473593646625
31
6
0
LINE
8
Modulos
10
25.049769835832347
20
22.856027092391656
30
0
11
25.049769835832347
21
22.856027092391656
31
6
0
LINE
8
Modulos
10
20.845287759563774
20
21.114473593646625
30
0
11
19.10373426081874
21
16.909991517378053
31
0
0
LINE
8
Modulos
10
20.845287759563774
20
21.114473593646625
30
6
11
19.10373426081874
21
16.909991517378053
31
6
0
LINE
8
Modulos
10
20.845287759563774
20
21.114473593646625
30
0
11
20.845287759563774
21
21.114473593646625
31
6
0
LINE
8
Modulos
10
19.10373426081874
20
16.909991517378053
30
0
11
20.845287759563774
21
12.70550944110948
31
0
0
LINE
8
Modulos
10
19.10373426081874
20
16.909991517378053
30
6
11
20.845287759563774
21
12.70550944110948
31
6
0
LINE
8
Modulos
10
19.10373426081874
20
16.909991517378053
30
0
11
19.10373426081874
21
16.909991517378053
31
6
0
LINE
8
Modulos
10
20.845287759563774
20
12.70550944110948
30
0
11
25.049769835832347
21
10.963955942364448
31
0
0
LINE
8
Modulos
10
20.845287759563774
20
12.70550944110948
30
6
11
25.049769835832347
21
10.963955942364448
31
6
0
LINE
8
Modulos
10
20.845287759563774
20
12.70550944110948
30
0
11
20.845287759563774
21
12.70550944110948
31
6
0
LINE
8
Modulos
10
25.049769835832347
20
10.963955942364448
30
0
11
29.25425191210092
21
12.70550944110948
31
0
0
LINE
8
Modulos
10
25.049769835832347
20
10.963955942364448
30
6
11
29.25425191210092
21
12.70550944110948
31
6
0
LINE
8
Modulos
10
25.049769835832347
20
10.963955942364448
30
0
11
25.049769835832347
21
10.963955942364448
31
6
0
LINE
8
Modulos
10
29.25425191210092
20
12.70550944110948
30
0
11
30.995805410845954
21
16.909991517378053
31
0
0
LINE
8
Modulos
10
29.25425191210092
20
12.70550944110948
30
6
11
30.995805410845954
21
16.909991517378053
31
6
0
LINE
8
Modulos
10
29.25425191210092
20
12.70550944110948
30
0
11
29.25425191210092
21
12.70550944110948
31
6
0
LINE
8
Modulos
10
-3.2135191181065412
20
-29.490529178075178
30
0
11
-4.955072616851574
21
-25.286047101806606
31
0
0
LINE
8
Modulos
10
-3.2135191181065412
20
-29.490529178075178
30
6
11
-4.955072616851574
21
-25.286047101806606
31
6
0
LINE
8
Modulos
10
-3.2135191181065412
20
-29.490529178075178
30
0
11
-3.2135191181065412
21
-29.490529178075178
31
6
0
LINE
8
Modulos
10
-4.955072616851574
20
-25.286047101806606
30
0
11
-9.159554693120146
21
-23.544493603061575
31
0
0
LINE
8
Modulos
10
-4.955072616851574
20
-25.286047101806606
30
6
11
-9.159554693120146
21
-23.544493603061575
31
6
0
LINE
8
Modulos
10
-4.955072616851574
20
-25.286047101806606
30
0
11
-4.955072616851574
21
-25.286047101806606
31
6
0
LINE
8
Modulos
10
-9.159554693120146
20
-23.544493603061575
30
0
11
-13.364036769388719
21
-25.286047101806606
31
0
0
LINE
8
Modulos
10
-9.159554693120146
20
-23.544493603061575
30
6
11
-13.364036769388719
21
-25.286047101806606
31
6
0
LINE
8
Modulos
10
-9.159554693120146
20
-23.544493603061575
30
0
11
-9.159554693120146
21
-23.544493603061575
31
6
0
LINE
8
Modulos
10
-13.364036769388719
20
-25.286047101806606
30
0
11
-15.105590268133751
21
-29.490529178075178
31
0
0
LINE
8
Modulos
10
-13.364036769388719
20
-25.286047101806606
30
6
11
-15.105590268133751
21
-29.490529178075178
31
6
0
LINE
8
Modulos
10
-13.364036769388719
20
-25.286047101806606
30
0
11
-13.364036769388719
21
-25.286047101806606
31
6
0
LINE
8
Modulos
10
-15.105590268133751
20
-29.490529178075178
30
0
11
-13.364036769388719
21
-33.695011254343754
31
0
0
LINE
8
Modulos
10
-15.105590268133751
20
-29.490529178075178
30
6
11
-13.364036769388719
21
-33.695011254343754
31
6
0
LINE
8
Modulos
10
-15.105590268133751
20
-29.490529178075178
30
0
11
-15.105590268133751
21
-29.490529178075178
31
6
0
LINE
8
Modulos
10
-13.364036769388719
20
-33.695011254343754
30
0
11
-9.159554693120148
21
-35.43656475308878
31
0
0
LINE
8
Modulos
10
-13.364036769388719
20
-33.695011254343754
30
6
11
-9.159554693120148
21
-35.43656475308878
31
6
0
LINE
8
Modulos
10
-13.364036769388719
20
-33.695011254343754
30
0
11
-13.364036769388719
21
-33.695011254343754
31
6
0
LINE
8
Modulos
10
-9.159554693120148
20
-35.43656475308878
30
0
11
-4.955072616851575
21
-33.695011254343754
31
0
0
LINE
8
Modulos
10
-9.159554693120148
20
-35.43656475308878
30
6
11
-4.955072616851575
21
-33.695011254343754
31
6
0
LINE
8
Modulos
10
-9.159554693120148
20
-35.43656475308878
30
0
11
-9.159554693120148
21
-35.43656475308878
31
6
0
LINE
8
Modulos
10
-4.955072616851575
20
-33.695011254343754
30
0
11
-3.2135191181065412
21
-29.490529178075178
31
0
0
LINE
8
Modulos
10
-4.955072616851575
20
-33.695011254343754
30
6
11
-3.2135191181065412
21
-29.490529178075178
31
6
0
LINE
8
Modulos
10
-4.955072616851575
20
-33.695011254343754
30
0
11
-4.955072616851575
21
-33.695011254343754
31
6
0
LINE
8
Modulos
10
17.086337964507713
20
-20.99390605555039
30
24
11
15.344784465762682
21
-16.789423979281818
31
24
0
LINE
8
Modulos
10
17.086337964507713
20
-20.99390605555039
30
30
11
15.344784465762682
21
-16.789423979281818
31
30
0
LINE
8
Modulos
10
17.086337964507713
20
-20.99390605555039
30
24
11
17.086337964507713
21
-20.99390605555039
31
30
0
LINE
8
Modulos
10
15.344784465762682
20
-16.789423979281818
30
24
11
11.14030238949411
21
-15.047870480536785
31
24
0
LINE
8
Modulos
10
15.344784465762682
20
-16.789423979281818
30
30
11
11.14030238949411
21
-15.047870480536785
31
30
0
LINE
8
Modulos
10
15.344784465762682
20
-16.789423979281818
30
24
11
15.344784465762682
21
-16.789423979281818
31
30
0
LINE
8
Modulos
10
11.14030238949411
20
-15.047870480536785
30
24
11
6.935820313225538
21
-16.789423979281818
31
24
0
LINE
8
Modulos
10
11.14030238949411
20
-15.047870480536785
30
30
11
6.935820313225538
21
-16.789423979281818
31
30
0
LINE
8
Modulos
10
11.14030238949411
20
-15.047870480536785
30
24
11
11.14030238949411
21
-15.047870480536785
31
30
0
LINE
8
Modulos
10
6.935820313225538
20
-16.789423979281818
30
24
11
5.194266814480505
21
-20.99390605555039
31
24
0
LINE
8
Modulos
10
6.935820313225538
20
-16.789423979281818
30
30
11
5.194266814480505
21
-20.99390605555039
31
30
0
LINE
8
Modulos
10
6.935820313225538
20
-16.789423979281818
30
24
11
6.935820313225538
21
-16.789423979281818
31
30
0
LINE
8
Modulos
10
5.194266814480505
20
-20.99390605555039
30
24
11
6.935820313225537
21
-25.198388131818962
31
24
0
LINE
8
Modulos
10
5.194266814480505
20
-20.99390605555039
30
30
11
6.935820313225537
21
-25.198388131818962
31
30
0
LINE
8
Modulos
10
5.194266814480505
20
-20.99390605555039
30
24
11
5.194266814480505
21
-20.99390605555039
31
30
0
LINE
8
Modulos
10
6.935820313225537
20
-25.198388131818962
30
24
11
11.140302389494108
21
-26.939941630563993
31
24
0
LINE
8
Modulos
10
6.935820313225537
20
-25.198388131818962
30
30
11
11.140302389494108
21
-26.939941630563993
31
30
0
LINE
8
Modulos
10
6.935820313225537
20
-25.198388131818962
30
24
11
6.935820313225537
21
-25.198388131818962
31
30
0
LINE
8
Modulos
10
11.140302389494108
20
-26.939941630563993
30
24
11
15.344784465762682
21
-25.198388131818962
31
24
0
LINE
8
Modulos
10
11.140302389494108
20
-26.939941630563993
30
30
11
15.344784465762682
21
-25.198388131818962
31
30
0
LINE
8
Modulos
10
11.140302389494108
20
-26.939941630563993
30
24
11
11.140302389494108
21
-26.939941630563993
31
30
0
LINE
8
Modulos
10
15.344784465762682
20
-25.198388131818962
30
24
11
17.086337964507713
21
-20.99390605555039
31
24
0
LINE
8
Modulos
10
15.344784465762682
20
-25.198388131818962
30
30
11
17.086337964507713
21
-20.99390605555039
31
30
0
LINE
8
Modulos
10
15.344784465762682
20
-25.198388131818962
30
24
11
15.344784465762682
21
-25.198388131818962
31
30
0
LINE
8
Modulos
10
17.086337964507713
20
-20.99390605555039
30
0
11
15.344784465762682
21
-16.789423979281818
31
0
0
LINE
8
Modulos
10
17.086337964507713
20
-20.99390605555039
30
6
11
15.344784465762682
21
-16.789423979281818
31
6
0
LINE
8
Modulos
10
17.086337964507713
20
-20.99390605555039
30
0
11
17.086337964507713
21
-20.99390605555039
31
6
0
LINE
8
Modulos
10
15.344784465762682
20
-16.789423979281818
30
0
11
11.14030238949411
21
-15.047870480536785
31
0
0
LINE
8
Modulos
10
15.344784465762682
20
-16.789423979281818
30
6
11
11.14030238949411
21
-15.047870480536785
31
6
0
LINE
8
Modulos
10
15.344784465762682
20
-16.789423979281818
30
0
11
15.344784465762682
21
-16.789423979281818
31
6
0
LINE
8
Modulos
10
11.14030238949411
20
-15.047870480536785
30
0
11
6.935820313225538
21
-16.789423979281818
31
0
0
LINE
8
Modulos
10
11.14030238949411
20
-15.047870480536785
30
6
11
6.935820313225538
21
-16.789423979281818
31
6
0
LINE
8
Modulos
10
11.14030238949411
20
-15.047870480536785
30
0
11
11.14030238949411
21
-15.047870480536785
31
6
0
LINE
8
Modulos
10
6.935820313225538
20
-16.789423979281818
30
0
11
5.194266814480505
21
-20.99390605555039
31
0
0
LINE
8
Modulos
10
6.935820313225538
20
-16.789423979281818
30
6
11
5.194266814480505
21
-20.99390605555039
31
6
0
LINE
8
Modulos
10
6.935820313225538
20
-16.789423979281818
30
0
11
6.935820313225538
21
-16.789423979281818
31
6
0
LINE
8
Modulos
10
5.194266814480505
20
-20.99390605555039
30
0
11
6.935820313225537
21
-25.198388131818962
31
0
0
LINE
8
Modulos
10
5.194266814480505
20
-20.99390605555039
30
6
11
6.935820313225537
21
-25.198388131818962
31
6
0
LINE
8
Modulos
10
5.194266814480505
20
-20.99390605555039
30
0
11
5.194266814480505
21
-20.99390605555039
31
6
0
LINE
8
Modulos
10
6.935820313225537
20
-25.198388131818962
30
0
11
11.140302389494108
21
-26.939941630563993
31
0
0
LINE
8
Modulos
10
6.935820313225537
20
-25.198388131818962
30
6
11
11.140302389494108
21
-26.939941630563993
31
6
0
LINE
8
Modulos
10
6.935820313225537
20
-25.198388131818962
30
0
11
6.935820313225537
21
-25.198388131818962
31
6
0
LINE
8
Modulos
10
11.140302389494108
20
-26.939941630563993
30
0
11
15.344784465762682
21
-25.198388131818962
31
0
0
LINE
8
Modulos
10
11.140302389494108
20
-26.939941630563993
30
6
11
15.344784465762682
21
-25.198388131818962
31
6
0
LINE
8
Modulos
10
11.140302389494108
20
-26.939941630563993
30
0
11
11.140302389494108
21
-26.939941630563993
31
6
0
LINE
8
Modulos
10
15.344784465762682
20
-25.198388131818962
30
0
11
17.086337964507713
21
-20.99390605555039
31
0
0
LINE
8
Modulos
10
15.344784465762682
20
-25.198388131818962
30
6
11
17.086337964507713
21
-20.99390605555039
31
6
0
LINE
8
Modulos
10
15.344784465762682
20
-25.198388131818962
30
0
11
15.344784465762682
21
-25.198388131818962
31
6
0
LINE
8
Modulos
10
27.21968919127326
20
-16.76107494843162
30
12
11
25.47813569252823
21
-12.556592872163048
31
12
0
LINE
8
Modulos
10
27.21968919127326
20
-16.76107494843162
30
18
11
25.47813569252823
21
-12.556592872163048
31
18
0
LINE
8
Modulos
10
27.21968919127326
20
-16.76107494843162
30
12
11
27.21968919127326
21
-16.76107494843162
31
18
0
LINE
8
Modulos
10
25.47813569252823
20
-12.556592872163048
30
12
11
21.273653616259658
21
-10.815039373418015
31
12
0
LINE
8
Modulos
10
25.47813569252823
20
-12.556592872163048
30
18
11
21.273653616259658
21
-10.815039373418015
31
18
0
LINE
8
Modulos
10
25.47813569252823
20
-12.556592872163048
30
12
11
25.47813569252823
21
-12.556592872163048
31
18
0
LINE
8
Modulos
10
21.273653616259658
20
-10.815039373418015
30
12
11
17.069171539991085
21
-12.556592872163048
31
12
0
LINE
8
Modulos
10
21.273653616259658
20
-10.815039373418015
30
18
11
17.069171539991085
21
-12.556592872163048
31
18
0
LINE
8
Modulos
10
21.273653616259658
20
-10.815039373418015
30
12
11
21.273653616259658
21
-10.815039373418015
31
18
0
LINE
8
Modulos
10
17.069171539991085
20
-12.556592872163048
30
12
11
15.327618041246053
21
-16.76107494843162
31
12
0
LINE
8
Modulos
10
17.069171539991085
20
-12.556592872163048
30
18
11
15.327618041246053
21
-16.76107494843162
31
18
0
LINE
8
Modulos
10
17.069171539991085
20
-12.556592872163048
30
12
11
17.069171539991085
21
-12.556592872163048
31
18
0
LINE
8
Modulos
10
15.327618041246053
20
-16.76107494843162
30
12
11
17.069171539991085
21
-20.965557024700193
31
12
0
LINE
8
Modulos
10
15.327618041246053
20
-16.76107494843162
30
18
11
17.069171539991085
21
-20.965557024700193
31
18
0
LINE
8
Modulos
10
15.327618041246053
20
-16.76107494843162
30
12
11
15.327618041246053
21
-16.76107494843162
31
18
0
LINE
8
Modulos
10
17.069171539991085
20
-20.965557024700193
30
12
11
21.273653616259658
21
-22.707110523445223
31
12
0
LINE
8
Modulos
10
17.069171539991085
20
-20.965557024700193
30
18
11
21.273653616259658
21
-22.707110523445223
31
18
0
LINE
8
Modulos
10
17.069171539991085
20
-20.965557024700193
30
12
11
17.069171539991085
21
-20.965557024700193
31
18
0
LINE
8
Modulos
10
21.273653616259658
20
-22.707110523445223
30
12
11
25.47813569252823
21
-20.965557024700193
31
12
0
LINE
8
Modulos
10
21.273653616259658
20
-22.707110523445223
30
18
11
25.47813569252823
21
-20.965557024700193
31
18
0
LINE
8
Modulos
10
21.273653616259658
20
-22.707110523445223
30
12
11
21.273653616259658
21
-22.707110523445223
31
18
0
LINE
8
Modulos
10
25.47813569252823
20
-20.965557024700193
30
12
11
27.21968919127326
21
-16.76107494843162
31
12
0
LINE
8
Modulos
10
25.47813569252823
20
-20.965557024700193
30
18
11
27.21968919127326
21
-16.76107494843162
31
18
0
LINE
8
Modulos
10
25.47813569252823
20
-20.965557024700193
30
12
11
25.47813569252823
21
-20.965557024700193
31
18
0
LINE
8
Modulos
10
-3.2135191181065412
20
-29.490529178075178
30
12
11
-4.955072616851574
21
-25.286047101806606
31
12
0
LINE
8
Modulos
10
-3.2135191181065412
20
-29.490529178075178
30
18
11
-4.955072616851574
21
-25.286047101806606
31
18
0
LINE
8
Modulos
10
-3.2135191181065412
20
-29.490529178075178
30
12
11
-3.2135191181065412
21
-29.490529178075178
31
18
0
LINE
8
Modulos
10
-4.955072616851574
20
-25.286047101806606
30
12
11
-9.159554693120146
21
-23.544493603061575
31
12
0
LINE
8
Modulos
10
-4.955072616851574
20
-25.286047101806606
30
18
11
-9.159554693120146
21
-23.544493603061575
31
18
0
LINE
8
Modulos
10
-4.955072616851574
20
-25.286047101806606
30
12
11
-4.955072616851574
21
-25.286047101806606
31
18
0
LINE
8
Modulos
10
-9.159554693120146
20
-23.544493603061575
30
12
11
-13.364036769388719
21
-25.286047101806606
31
12
0
LINE
8
Modulos
10
-9.159554693120146
20
-23.544493603061575
30
18
11
-13.364036769388719
21
-25.286047101806606
31
18
0
LINE
8
Modulos
10
-9.159554693120146
20
-23.544493603061575
30
12
11
-9.159554693120146
21
-23.544493603061575
31
18
0
LINE
8
Modulos
10
-13.364036769388719
20
-25.286047101806606
30
12
11
-15.105590268133751
21
-29.490529178075178
31
12
0
LINE
8
Modulos
10
-13.364036769388719
20
-25.286047101806606
30
18
11
-15.105590268133751
21
-29.490529178075178
31
18
0
LINE
8
Modulos
10
-13.364036769388719
20
-25.286047101806606
30
12
11
-13.364036769388719
21
-25.286047101806606
31
18
0
LINE
8
Modulos
10
-15.105590268133751
20
-29.490529178075178
30
12
11
-13.364036769388719
21
-33.695011254343754
31
12
0
LINE
8
Modulos
10
-15.105590268133751
20
-29.490529178075178
30
18
11
-13.364036769388719
21
-33.695011254343754
31
18
0
LINE
8
Modulos
10
-15.105590268133751
20
-29.490529178075178
30
12
11
-15.105590268133751
21
-29.490529178075178
31
18
0
LINE
8
Modulos
10
-13.364036769388719
20
-33.695011254343754
30
12
11
-9.159554693120148
21
-35.43656475308878
31
12
0
LINE
8
Modulos
10
-13.364036769388719
20
-33.695011254343754
30
18
11
-9.159554693120148
21
-35.43656475308878
31
18
0
LINE
8
Modulos
10
-13.364036769388719
20
-33.695011254343754
30
12
11
-13.364036769388719
21
-33.695011254343754
31
18
0
LINE
8
Modulos
10
-9.159554693120148
20
-35.43656475308878
30
12
11
-4.955072616851575
21
-33.695011254343754
31
12
0
LINE
8
Modulos
10
-9.159554693120148
20
-35.43656475308878
30
18
11
-4.955072616851575
21
-33.695011254343754
31
18
0
LINE
8
Modulos
10
-9.159554693120148
20
-35.43656475308878
30
12
11
-9.159554693120148
21
-35.43656475308878
31
18
0
LINE
8
Modulos
10
-4.955072616851575
20
-33.695011254343754
30
12
11
-3.2135191181065412
21
-29.490529178075178
31
12
0
LINE
8
Modulos
10
-4.955072616851575
20
-33.695011254343754
30
18
11
-3.2135191181065412
21
-29.490529178075178
31
18
0
LINE
8
Modulos
10
-4.955072616851575
20
-33.695011254343754
30
12
11
-4.955072616851575
21
-33.695011254343754
31
18
0
LINE
8
Modulos
10
1.8078322571664271
20
-27.173119866265182
30
18
11
0.06627875842139463
21
-22.96863778999661
31
18
0
LINE
8
Modulos
10
1.8078322571664271
20
-27.173119866265182
30
24
11
0.06627875842139463
21
-22.96863778999661
31
24
0
LINE
8
Modulos
10
1.8078322571664271
20
-27.173119866265182
30
18
11
1.8078322571664271
21
-27.173119866265182
31
24
0
LINE
8
Modulos
10
0.06627875842139463
20
-22.96863778999661
30
18
11
-4.138203317847178
21
-21.22708429125158
31
18
0
LINE
8
Modulos
10
0.06627875842139463
20
-22.96863778999661
30
24
11
-4.138203317847178
21
-21.22708429125158
31
24
0
LINE
8
Modulos
10
0.06627875842139463
20
-22.96863778999661
30
18
11
0.06627875842139463
21
-22.96863778999661
31
24
0
LINE
8
Modulos
10
-4.138203317847178
20
-21.22708429125158
30
18
11
-8.342685394115751
21
-22.96863778999661
31
18
0
LINE
8
Modulos
10
-4.138203317847178
20
-21.22708429125158
30
24
11
-8.342685394115751
21
-22.96863778999661
31
24
0
LINE
8
Modulos
10
-4.138203317847178
20
-21.22708429125158
30
18
11
-4.138203317847178
21
-21.22708429125158
31
24
0
LINE
8
Modulos
10
-8.342685394115751
20
-22.96863778999661
30
18
11
-10.084238892860782
21
-27.173119866265182
31
18
0
LINE
8
Modulos
10
-8.342685394115751
20
-22.96863778999661
30
24
11
-10.084238892860782
21
-27.173119866265182
31
24
0
LINE
8
Modulos
10
-8.342685394115751
20
-22.96863778999661
30
18
11
-8.342685394115751
21
-22.96863778999661
31
24
0
LINE
8
Modulos
10
-10.084238892860782
20
-27.173119866265182
30
18
11
-8.342685394115751
21
-31.377601942533754
31
18
0
LINE
8
Modulos
10
-10.084238892860782
20
-27.173119866265182
30
24
11
-8.342685394115751
21
-31.377601942533754
31
24
0
LINE
8
Modulos
10
-10.084238892860782
20
-27.173119866265182
30
18
11
-10.084238892860782
21
-27.173119866265182
31
24
0
LINE
8
Modulos
10
-8.342685394115751
20
-31.377601942533754
30
18
11
-4.138203317847179
21
-33.119155441278785
31
18
0
LINE
8
Modulos
10
-8.342685394115751
20
-31.377601942533754
30
24
11
-4.138203317847179
21
-33.119155441278785
31
24
0
LINE
8
Modulos
10
-8.342685394115751
20
-31.377601942533754
30
18
11
-8.342685394115751
21
-31.377601942533754
31
24
0
LINE
8
Modulos
10
-4.138203317847179
20
-33.119155441278785
30
18
11
0.06627875842139375
21
-31.377601942533754
31
18
0
LINE
8
Modulos
10
-4.138203317847179
20
-33.119155441278785
30
24
11
0.06627875842139375
21
-31.377601942533754
31
24
0
LINE
8
Modulos
10
-4.138203317847179
20
-33.119155441278785
30
18
11
-4.138203317847179
21
-33.119155441278785
31
24
0
LINE
8
Modulos
10
0.06627875842139375
20
-31.377601942533754
30
18
11
1.8078322571664271
21
-27.173119866265182
31
18
0
LINE
8
Modulos
10
0.06627875842139375
20
-31.377601942533754
30
24
11
1.8078322571664271
21
-27.173119866265182
31
24
0
LINE
8
Modulos
10
0.06627875842139375
20
-31.377601942533754
30
18
11
0.06627875842139375
21
-31.377601942533754
31
24
0
LINE
8
Modulos
10
6.899256345729215
20
-25.212144152887895
30
24
11
5.157702846984183
21
-21.007662076619322
31
24
0
LINE
8
Modulos
10
6.899256345729215
20
-25.212144152887895
30
30
11
5.157702846984183
21
-21.007662076619322
31
30
0
LINE
8
Modulos
10
6.899256345729215
20
-25.212144152887895
30
24
11
6.899256345729215
21
-25.212144152887895
31
30
0
LINE
8
Modulos
10
5.157702846984183
20
-21.007662076619322
30
24
11
0.9532207707156107
21
-19.26610857787429
31
24
0
LINE
8
Modulos
10
5.157702846984183
20
-21.007662076619322
30
30
11
0.9532207707156107
21
-19.26610857787429
31
30
0
LINE
8
Modulos
10
5.157702846984183
20
-21.007662076619322
30
24
11
5.157702846984183
21
-21.007662076619322
31
30
0
LINE
8
Modulos
10
0.9532207707156107
20
-19.26610857787429
30
24
11
-3.251261305552962
21
-21.007662076619322
31
24
0
LINE
8
Modulos
10
0.9532207707156107
20
-19.26610857787429
30
30
11
-3.251261305552962
21
-21.007662076619322
31
30
0
LINE
8
Modulos
10
0.9532207707156107
20
-19.26610857787429
30
24
11
0.9532207707156107
21
-19.26610857787429
31
30
0
LINE
8
Modulos
10
-3.251261305552962
20
-21.007662076619322
30
24
11
-4.9928148042979945
21
-25.212144152887895
31
24
0
LINE
8
Modulos
10
-3.251261305552962
20
-21.007662076619322
30
30
11
-4.9928148042979945
21
-25.212144152887895
31
30
0
LINE
8
Modulos
10
-3.251261305552962
20
-21.007662076619322
30
24
11
-3.251261305552962
21
-21.007662076619322
31
30
0
LINE
8
Modulos
10
-4.9928148042979945
20
-25.212144152887895
30
24
11
-3.251261305552963
21
-29.416626229156467
31
24
0
LINE
8
Modulos
10
-4.9928148042979945
20
-25.212144152887895
30
30
11
-3.251261305552963
21
-29.416626229156467
31
30
0
LINE
8
Modulos
10
-4.9928148042979945
20
-25.212144152887895
30
24
11
-4.9928148042979945
21
-25.212144152887895
31
30
0
LINE
8
Modulos
10
-3.251261305552963
20
-29.416626229156467
30
24
11
0.9532207707156093
21
-31.158179727901498
31
24
0
LINE
8
Modulos
10
-3.251261305552963
20
-29.416626229156467
30
30
11
0.9532207707156093
21
-31.158179727901498
31
30
0
LINE
8
Modulos
10
-3.251261305552963
20
-29.416626229156467
30
24
11
-3.251261305552963
21
-29.416626229156467
31
30
0
LINE
8
Modulos
10
0.9532207707156093
20
-31.158179727901498
30
24
11
5.157702846984182
21
-29.416626229156467
31
24
0
LINE
8
Modulos
10
0.9532207707156093
20
-31.158179727901498
30
30
11
5.157702846984182
21
-29.416626229156467
31
30
0
LINE
8
Modulos
10
0.9532207707156093
20
-31.158179727901498
30
24
11
0.9532207707156093
21
-31.158179727901498
31
30
0
LINE
8
Modulos
10
5.157702846984182
20
-29.416626229156467
30
24
11
6.899256345729215
21
-25.212144152887895
31
24
0
LINE
8
Modulos
10
5.157702846984182
20
-29.416626229156467
30
30
11
6.899256345729215
21
-25.212144152887895
31
30
0
LINE
8
Modulos
10
5.157702846984182
20
-29.416626229156467
30
24
11
5.157702846984182
21
-29.416626229156467
31
30
0
LINE
8
Modulos
10
12.0245341298092
20
-23.132369999407118
30
18
11
10.28298063106417
21
-18.927887923138545
31
18
0
LINE
8
Modulos
10
12.0245341298092
20
-23.132369999407118
30
24
11
10.28298063106417
21
-18.927887923138545
31
24
0
LINE
8
Modulos
10
12.0245341298092
20
-23.132369999407118
30
18
11
12.0245341298092
21
-23.132369999407118
31
24
0
LINE
8
Modulos
10
10.28298063106417
20
-18.927887923138545
30
18
11
6.078498554795597
21
-17.186334424393515
31
18
0
LINE
8
Modulos
10
10.28298063106417
20
-18.927887923138545
30
24
11
6.078498554795597
21
-17.186334424393515
31
24
0
LINE
8
Modulos
10
10.28298063106417
20
-18.927887923138545
30
18
11
10.28298063106417
21
-18.927887923138545
31
24
0
LINE
8
Modulos
10
6.078498554795597
20
-17.186334424393515
30
18
11
1.8740164785270244
21
-18.927887923138545
31
18
0
LINE
8
Modulos
10
6.078498554795597
20
-17.186334424393515
30
24
11
1.8740164785270244
21
-18.927887923138545
31
24
0
LINE
8
Modulos
10
6.078498554795597
20
-17.186334424393515
30
18
11
6.078498554795597
21
-17.186334424393515
31
24
0
LINE
8
Modulos
10
1.8740164785270244
20
-18.927887923138545
30
18
11
0.13246297978199184
21
-23.132369999407118
31
18
0
LINE
8
Modulos
10
1.8740164785270244
20
-18.927887923138545
30
24
11
0.13246297978199184
21
-23.132369999407118
31
24
0
LINE
8
Modulos
10
1.8740164785270244
20
-18.927887923138545
30
18
11
1.8740164785270244
21
-18.927887923138545
31
24
0
LINE
8
Modulos
10
0.13246297978199184
20
-23.132369999407118
30
18
11
1.8740164785270235
21
-27.33685207567569
31
18
0
LINE
8
Modulos
10
0.13246297978199184
20
-23.132369999407118
30
24
11
1.8740164785270235
21
-27.33685207567569
31
24
0
LINE
8
Modulos
10
0.13246297978199184
20
-23.132369999407118
30
18
11
0.13246297978199184
21
-23.132369999407118
31
24
0
LINE
8
Modulos
10
1.8740164785270235
20
-27.33685207567569
30
18
11
6.078498554795596
21
-29.07840557442072
31
18
0
LINE
8
Modulos
10
1.8740164785270235
20
-27.33685207567569
30
24
11
6.078498554795596
21
-29.07840557442072
31
24
0
LINE
8
Modulos
10
1.8740164785270235
20
-27.33685207567569
30
18
11
1.8740164785270235
21
-27.33685207567569
31
24
0
LINE
8
Modulos
10
6.078498554795596
20
-29.07840557442072
30
18
11
10.282980631064168
21
-27.33685207567569
31
18
0
LINE
8
Modulos
10
6.078498554795596
20
-29.07840557442072
30
24
11
10.282980631064168
21
-27.33685207567569
31
24
0
LINE
8
Modulos
10
6.078498554795596
20
-29.07840557442072
30
18
11
6.078498554795596
21
-29.07840557442072
31
24
0
LINE
8
Modulos
10
10.282980631064168
20
-27.33685207567569
30
18
11
12.0245341298092
21
-23.132369999407118
31
18
0
LINE
8
Modulos
10
10.282980631064168
20
-27.33685207567569
30
24
11
12.0245341298092
21
-23.132369999407118
31
24
0
LINE
8
Modulos
10
10.282980631064168
20
-27.33685207567569
30
18
11
10.282980631064168
21
-27.33685207567569
31
24
0
LINE
8
Modulos
10
27.21968919127326
20
-16.76107494843162
30
0
11
25.47813569252823
21
-12.556592872163048
31
0
0
LINE
8
Modulos
10
27.21968919127326
20
-16.76107494843162
30
6
11
25.47813569252823
21
-12.556592872163048
31
6
0
LINE
8
Modulos
10
27.21968919127326
20
-16.76107494843162
30
0
11
27.21968919127326
21
-16.76107494843162
31
6
0
LINE
8
Modulos
10
25.47813569252823
20
-12.556592872163048
30
0
11
21.273653616259658
21
-10.815039373418015
31
0
0
LINE
8
Modulos
10
25.47813569252823
20
-12.556592872163048
30
6
11
21.273653616259658
21
-10.815039373418015
31
6
0
LINE
8
Modulos
10
25.47813569252823
20
-12.556592872163048
30
0
11
25.47813569252823
21
-12.556592872163048
31
6
0
LINE
8
Modulos
10
21.273653616259658
20
-10.815039373418015
30
0
11
17.069171539991085
21
-12.556592872163048
31
0
0
LINE
8
Modulos
10
21.273653616259658
20
-10.815039373418015
30
6
11
17.069171539991085
21
-12.556592872163048
31
6
0
LINE
8
Modulos
10
21.273653616259658
20
-10.815039373418015
30
0
11
21.273653616259658
21
-10.815039373418015
31
6
0
LINE
8
Modulos
10
17.069171539991085
20
-12.556592872163048
30
0
11
15.327618041246053
21
-16.76107494843162
31
0
0
LINE
8
Modulos
10
17.069171539991085
20
-12.556592872163048
30
6
11
15.327618041246053
21
-16.76107494843162
31
6
0
LINE
8
Modulos
10
17.069171539991085
20
-12.556592872163048
30
0
11
17.069171539991085
21
-12.556592872163048
31
6
0
LINE
8
Modulos
10
15.327618041246053
20
-16.76107494843162
30
0
11
17.069171539991085
21
-20.965557024700193
31
0
0
LINE
8
Modulos
10
15.327618041246053
20
-16.76107494843162
30
6
11
17.069171539991085
21
-20.965557024700193
31
6
0
LINE
8
Modulos
10
15.327618041246053
20
-16.76107494843162
30
0
11
15.327618041246053
21
-16.76107494843162
31
6
0
LINE
8
Modulos
10
17.069171539991085
20
-20.965557024700193
30
0
11
21.273653616259658
21
-22.707110523445223
31
0
0
LINE
8
Modulos
10
17.069171539991085
20
-20.965557024700193
30
6
11
21.273653616259658
21
-22.707110523445223
31
6
0
LINE
8
Modulos
10
17.069171539991085
20
-20.965557024700193
30
0
11
17.069171539991085
21
-20.965557024700193
31
6
0
LINE
8
Modulos
10
21.273653616259658
20
-22.707110523445223
30
0
11
25.47813569252823
21
-20.965557024700193
31
0
0
LINE
8
Modulos
10
21.273653616259658
20
-22.707110523445223
30
6
11
25.47813569252823
21
-20.965557024700193
31
6
0
LINE
8
Modulos
10
21.273653616259658
20
-22.707110523445223
30
0
11
21.273653616259658
21
-22.707110523445223
31
6
0
LINE
8
Modulos
10
25.47813569252823
20
-20.965557024700193
30
0
11
27.21968919127326
21
-16.76107494843162
31
0
0
LINE
8
Modulos
10
25.47813569252823
20
-20.965557024700193
30
6
11
27.21968919127326
21
-16.76107494843162
31
6
0
LINE
8
Modulos
10
25.47813569252823
20
-20.965557024700193
30
0
11
25.47813569252823
21
-20.965557024700193
31
6
0
LINE
8
Modulos
10
-8.36128048455267
20
-31.49350330672837
30
6
11
-10.102833983297703
21
-27.2890212304598
31
6
0
LINE
8
Modulos
10
-8.36128048455267
20
-31.49350330672837
30
12
11
-10.102833983297703
21
-27.2890212304598
31
12
0
LINE
8
Modulos
10
-8.36128048455267
20
-31.49350330672837
30
6
11
-8.36128048455267
21
-31.49350330672837
31
12
0
LINE
8
Modulos
10
-10.102833983297703
20
-27.2890212304598
30
6
11
-14.307316059566276
21
-25.547467731714768
31
6
0
LINE
8
Modulos
10
-10.102833983297703
20
-27.2890212304598
30
12
11
-14.307316059566276
21
-25.547467731714768
31
12
0
LINE
8
Modulos
10
-10.102833983297703
20
-27.2890212304598
30
6
11
-10.102833983297703
21
-27.2890212304598
31
12
0
LINE
8
Modulos
10
-14.307316059566276
20
-25.547467731714768
30
6
11
-18.511798135834848
21
-27.2890212304598
31
6
0
LINE
8
Modulos
10
-14.307316059566276
20
-25.547467731714768
30
12
11
-18.511798135834848
21
-27.2890212304598
31
12
0
LINE
8
Modulos
10
-14.307316059566276
20
-25.547467731714768
30
6
11
-14.307316059566276
21
-25.547467731714768
31
12
0
LINE
8
Modulos
10
-18.511798135834848
20
-27.2890212304598
30
6
11
-20.25335163457988
21
-31.49350330672837
31
6
0
LINE
8
Modulos
10
-18.511798135834848
20
-27.2890212304598
30
12
11
-20.25335163457988
21
-31.49350330672837
31
12
0
LINE
8
Modulos
10
-18.511798135834848
20
-27.2890212304598
30
6
11
-18.511798135834848
21
-27.2890212304598
31
12
0
LINE
8
Modulos
10
-20.25335163457988
20
-31.49350330672837
30
6
11
-18.511798135834848
21
-35.69798538299695
31
6
0
LINE
8
Modulos
10
-20.25335163457988
20
-31.49350330672837
30
12
11
-18.511798135834848
21
-35.69798538299695
31
12
0
LINE
8
Modulos
10
-20.25335163457988
20
-31.49350330672837
30
6
11
-20.25335163457988
21
-31.49350330672837
31
12
0
LINE
8
Modulos
10
-18.511798135834848
20
-35.69798538299695
30
6
11
-14.307316059566277
21
-37.439538881741974
31
6
0
LINE
8
Modulos
10
-18.511798135834848
20
-35.69798538299695
30
12
11
-14.307316059566277
21
-37.439538881741974
31
12
0
LINE
8
Modulos
10
-18.511798135834848
20
-35.69798538299695
30
6
11
-18.511798135834848
21
-35.69798538299695
31
12
0
LINE
8
Modulos
10
-14.307316059566277
20
-37.439538881741974
30
6
11
-10.102833983297703
21
-35.69798538299695
31
6
0
LINE
8
Modulos
10
-14.307316059566277
20
-37.439538881741974
30
12
11
-10.102833983297703
21
-35.69798538299695
31
12
0
LINE
8
Modulos
10
-14.307316059566277
20
-37.439538881741974
30
6
11
-14.307316059566277
21
-37.439538881741974
31
12
0
LINE
8
Modulos
10
-10.102833983297703
20
-35.69798538299695
30
6
11
-8.36128048455267
21
-31.49350330672837
31
6
0
LINE
8
Modulos
10
-10.102833983297703
20
-35.69798538299695
30
12
11
-8.36128048455267
21
-31.49350330672837
31
12
0
LINE
8
Modulos
10
-10.102833983297703
20
-35.69798538299695
30
6
11
-10.102833983297703
21
-35.69798538299695
31
12
0
LINE
8
Modulos
10
37.513820988362035
20
-12.561625233628213
30
0
11
35.772267489617
21
-8.35714315735964
31
0
0
LINE
8
Modulos
10
37.513820988362035
20
-12.561625233628213
30
6
11
35.772267489617
21
-8.35714315735964
31
6
0
LINE
8
Modulos
10
37.513820988362035
20
-12.561625233628213
30
0
11
37.513820988362035
21
-12.561625233628213
31
6
0
LINE
8
Modulos
10
35.772267489617
20
-8.35714315735964
30
0
11
31.567785413348428
21
-6.615589658614608
31
0
0
LINE
8
Modulos
10
35.772267489617
20
-8.35714315735964
30
6
11
31.567785413348428
21
-6.615589658614608
31
6
0
LINE
8
Modulos
10
35.772267489617
20
-8.35714315735964
30
0
11
35.772267489617
21
-8.35714315735964
31
6
0
LINE
8
Modulos
10
31.567785413348428
20
-6.615589658614608
30
0
11
27.363303337079856
21
-8.35714315735964
31
0
0
LINE
8
Modulos
10
31.567785413348428
20
-6.615589658614608
30
6
11
27.363303337079856
21
-8.35714315735964
31
6
0
LINE
8
Modulos
10
31.567785413348428
20
-6.615589658614608
30
0
11
31.567785413348428
21
-6.615589658614608
31
6
0
LINE
8
Modulos
10
27.363303337079856
20
-8.35714315735964
30
0
11
25.62174983833482
21
-12.561625233628213
31
0
0
LINE
8
Modulos
10
27.363303337079856
20
-8.35714315735964
30
6
11
25.62174983833482
21
-12.561625233628213
31
6
0
LINE
8
Modulos
10
27.363303337079856
20
-8.35714315735964
30
0
11
27.363303337079856
21
-8.35714315735964
31
6
0
LINE
8
Modulos
10
25.62174983833482
20
-12.561625233628213
30
0
11
27.363303337079856
21
-16.766107309896785
31
0
0
LINE
8
Modulos
10
25.62174983833482
20
-12.561625233628213
30
6
11
27.363303337079856
21
-16.766107309896785
31
6
0
LINE
8
Modulos
10
25.62174983833482
20
-12.561625233628213
30
0
11
25.62174983833482
21
-12.561625233628213
31
6
0
LINE
8
Modulos
10
27.363303337079856
20
-16.766107309896785
30
0
11
31.567785413348428
21
-18.507660808641816
31
0
0
LINE
8
Modulos
10
27.363303337079856
20
-16.766107309896785
30
6
11
31.567785413348428
21
-18.507660808641816
31
6
0
LINE
8
Modulos
10
27.363303337079856
20
-16.766107309896785
30
0
11
27.363303337079856
21
-16.766107309896785
31
6
0
LINE
8
Modulos
10
31.567785413348428
20
-18.507660808641816
30
0
11
35.772267489617
21
-16.766107309896785
31
0
0
LINE
8
Modulos
10
31.567785413348428
20
-18.507660808641816
30
6
11
35.772267489617
21
-16.766107309896785
31
6
0
LINE
8
Modulos
10
31.567785413348428
20
-18.507660808641816
30
0
11
31.567785413348428
21
-18.507660808641816
31
6
0
LINE
8
Modulos
10
35.772267489617
20
-16.766107309896785
30
0
11
37.513820988362035
21
-12.561625233628213
31
0
0
LINE
8
Modulos
10
35.772267489617
20
-16.766107309896785
30
6
11
37.513820988362035
21
-12.561625233628213
31
6
0
LINE
8
Modulos
10
35.772267489617
20
-16.766107309896785
30
0
11
35.772267489617
21
-16.766107309896785
31
6
0
LINE
8
Modulos
10
-13.40016064288381
20
-33.69114909632122
30
0
11
-15.141714141628842
21
-29.486667020052646
31
0
0
LINE
8
Modulos
10
-13.40016064288381
20
-33.69114909632122
30
6
11
-15.141714141628842
21
-29.486667020052646
31
6
0
LINE
8
Modulos
10
-13.40016064288381
20
-33.69114909632122
30
0
11
-13.40016064288381
21
-33.69114909632122
31
6
0
LINE
8
Modulos
10
-15.141714141628842
20
-29.486667020052646
30
0
11
-19.346196217897415
21
-27.745113521307616
31
0
0
LINE
8
Modulos
10
-15.141714141628842
20
-29.486667020052646
30
6
11
-19.346196217897415
21
-27.745113521307616
31
6
0
LINE
8
Modulos
10
-15.141714141628842
20
-29.486667020052646
30
0
11
-15.141714141628842
21
-29.486667020052646
31
6
0
LINE
8
Modulos
10
-19.346196217897415
20
-27.745113521307616
30
0
11
-23.550678294165987
21
-29.486667020052646
31
0
0
LINE
8
Modulos
10
-19.346196217897415
20
-27.745113521307616
30
6
11
-23.550678294165987
21
-29.486667020052646
31
6
0
LINE
8
Modulos
10
-19.346196217897415
20
-27.745113521307616
30
0
11
-19.346196217897415
21
-27.745113521307616
31
6
0
LINE
8
Modulos
10
-23.550678294165987
20
-29.486667020052646
30
0
11
-25.292231792911018
21
-33.69114909632122
31
0
0
LINE
8
Modulos
10
-23.550678294165987
20
-29.486667020052646
30
6
11
-25.292231792911018
21
-33.69114909632122
31
6
0
LINE
8
Modulos
10
-23.550678294165987
20
-29.486667020052646
30
0
11
-23.550678294165987
21
-29.486667020052646
31
6
0
LINE
8
Modulos
10
-25.292231792911018
20
-33.69114909632122
30
0
11
-23.550678294165987
21
-37.89563117258979
31
0
0
LINE
8
Modulos
10
-25.292231792911018
20
-33.69114909632122
30
6
11
-23.550678294165987
21
-37.89563117258979
31
6
0
LINE
8
Modulos
10
-25.292231792911018
20
-33.69114909632122
30
0
11
-25.292231792911018
21
-33.69114909632122
31
6
0
LINE
8
Modulos
10
-23.550678294165987
20
-37.89563117258979
30
0
11
-19.346196217897415
21
-39.63718467133482
31
0
0
LINE
8
Modulos
10
-23.550678294165987
20
-37.89563117258979
30
6
11
-19.346196217897415
21
-39.63718467133482
31
6
0
LINE
8
Modulos
10
-23.550678294165987
20
-37.89563117258979
30
0
11
-23.550678294165987
21
-37.89563117258979
31
6
0
LINE
8
Modulos
10
-19.346196217897415
20
-39.63718467133482
30
0
11
-15.141714141628842
21
-37.895631172589795
31
0
0
LINE
8
Modulos
10
-19.346196217897415
20
-39.63718467133482
30
6
11
-15.141714141628842
21
-37.895631172589795
31
6
0
LINE
8
Modulos
10
-19.346196217897415
20
-39.63718467133482
30
0
11
-19.346196217897415
21
-39.63718467133482
31
6
0
LINE
8
Modulos
10
-15.141714141628842
20
-37.895631172589795
30
0
11
-13.40016064288381
21
-33.69114909632122
31
0
0
LINE
8
Modulos
10
-15.141714141628842
20
-37.895631172589795
30
6
11
-13.40016064288381
21
-33.69114909632122
31
6
0
LINE
8
Modulos
10
-15.141714141628842
20
-37.895631172589795
30
0
11
-15.141714141628842
21
-37.895631172589795
31
6
0
LINE
8
Modulos
10
6.651053357809035
20
7.513254899012355
30
0
11
4.909499859064002
21
11.717736975280928
31
0
0
LINE
8
Modulos
10
6.651053357809035
20
7.513254899012355
30
6
11
4.909499859064002
21
11.717736975280928
31
6
0
LINE
8
Modulos
10
6.651053357809035
20
7.513254899012355
30
0
11
6.651053357809035
21
7.513254899012355
31
6
0
LINE
8
Modulos
10
4.909499859064002
20
11.717736975280928
30
0
11
0.7050177827954299
21
13.45929047402596
31
0
0
LINE
8
Modulos
10
4.909499859064002
20
11.717736975280928
30
6
11
0.7050177827954299
21
13.45929047402596
31
6
0
LINE
8
Modulos
10
4.909499859064002
20
11.717736975280928
30
0
11
4.909499859064002
21
11.717736975280928
31
6
0
LINE
8
Modulos
10
0.7050177827954299
20
13.45929047402596
30
0
11
-3.499464293473143
21
11.717736975280928
31
0
0
LINE
8
Modulos
10
0.7050177827954299
20
13.45929047402596
30
6
11
-3.499464293473143
21
11.717736975280928
31
6
0
LINE
8
Modulos
10
0.7050177827954299
20
13.45929047402596
30
0
11
0.7050177827954299
21
13.45929047402596
31
6
0
LINE
8
Modulos
10
-3.499464293473143
20
11.717736975280928
30
0
11
-5.241017792218175
21
7.513254899012356
31
0
0
LINE
8
Modulos
10
-3.499464293473143
20
11.717736975280928
30
6
11
-5.241017792218175
21
7.513254899012356
31
6
0
LINE
8
Modulos
10
-3.499464293473143
20
11.717736975280928
30
0
11
-3.499464293473143
21
11.717736975280928
31
6
0
LINE
8
Modulos
10
-5.241017792218175
20
7.513254899012356
30
0
11
-3.4994642934731437
21
3.3087728227437827
31
0
0
LINE
8
Modulos
10
-5.241017792218175
20
7.513254899012356
30
6
11
-3.4994642934731437
21
3.3087728227437827
31
6
0
LINE
8
Modulos
10
-5.241017792218175
20
7.513254899012356
30
0
11
-5.241017792218175
21
7.513254899012356
31
6
0
LINE
8
Modulos
10
-3.4994642934731437
20
3.3087728227437827
30
0
11
0.7050177827954285
21
1.5672193239987502
31
0
0
LINE
8
Modulos
10
-3.4994642934731437
20
3.3087728227437827
30
6
11
0.7050177827954285
21
1.5672193239987502
31
6
0
LINE
8
Modulos
10
-3.4994642934731437
20
3.3087728227437827
30
0
11
-3.4994642934731437
21
3.3087728227437827
31
6
0
LINE
8
Modulos
10
0.7050177827954285
20
1.5672193239987502
30
0
11
4.909499859064001
21
3.308772822743782
31
0
0
LINE
8
Modulos
10
0.7050177827954285
20
1.5672193239987502
30
6
11
4.909499859064001
21
3.308772822743782
31
6
0
LINE
8
Modulos
10
0.7050177827954285
20
1.5672193239987502
30
0
11
0.7050177827954285
21
1.5672193239987502
31
6
0
LINE
8
Modulos
10
4.909499859064001
20
3.308772822743782
30
0
11
6.651053357809035
21
7.513254899012355
31
0
0
LINE
8
Modulos
10
4.909499859064001
20
3.308772822743782
30
6
11
6.651053357809035
21
7.513254899012355
31
6
0
LINE
8
Modulos
10
4.909499859064001
20
3.308772822743782
30
0
11
4.909499859064001
21
3.308772822743782
31
6
0
LINE
8
Modulos
10
1.8078322571664271
20
-27.173119866265182
30
6
11
0.06627875842139463
21
-22.96863778999661
31
6
0
LINE
8
Modulos
10
1.8078322571664271
20
-27.173119866265182
30
12
11
0.06627875842139463
21
-22.96863778999661
31
12
0
LINE
8
Modulos
10
1.8078322571664271
20
-27.173119866265182
30
6
11
1.8078322571664271
21
-27.173119866265182
31
12
0
LINE
8
Modulos
10
0.06627875842139463
20
-22.96863778999661
30
6
11
-4.138203317847178
21
-21.22708429125158
31
6
0
LINE
8
Modulos
10
0.06627875842139463
20
-22.96863778999661
30
12
11
-4.138203317847178
21
-21.22708429125158
31
12
0
LINE
8
Modulos
10
0.06627875842139463
20
-22.96863778999661
30
6
11
0.06627875842139463
21
-22.96863778999661
31
12
0
LINE
8
Modulos
10
-4.138203317847178
20
-21.22708429125158
30
6
11
-8.342685394115751
21
-22.96863778999661
31
6
0
LINE
8
Modulos
10
-4.138203317847178
20
-21.22708429125158
30
12
11
-8.342685394115751
21
-22.96863778999661
31
12
0
LINE
8
Modulos
10
-4.138203317847178
20
-21.22708429125158
30
6
11
-4.138203317847178
21
-21.22708429125158
31
12
0
LINE
8
Modulos
10
-8.342685394115751
20
-22.96863778999661
30
6
11
-10.084238892860782
21
-27.173119866265182
31
6
0
LINE
8
Modulos
10
-8.342685394115751
20
-22.96863778999661
30
12
11
-10.084238892860782
21
-27.173119866265182
31
12
0
LINE
8
Modulos
10
-8.342685394115751
20
-22.96863778999661
30
6
11
-8.342685394115751
21
-22.96863778999661
31
12
0
LINE
8
Modulos
10
-10.084238892860782
20
-27.173119866265182
30
6
11
-8.342685394115751
21
-31.377601942533754
31
6
0
LINE
8
Modulos
10
-10.084238892860782
20
-27.173119866265182
30
12
11
-8.342685394115751
21
-31.377601942533754
31
12
0
LINE
8
Modulos
10
-10.084238892860782
20
-27.173119866265182
30
6
11
-10.084238892860782
21
-27.173119866265182
31
12
0
LINE
8
Modulos
10
-8.342685394115751
20
-31.377601942533754
30
6
11
-4.138203317847179
21
-33.119155441278785
31
6
0
LINE
8
Modulos
10
-8.342685394115751
20
-31.377601942533754
30
12
11
-4.138203317847179
21
-33.119155441278785
31
12
0
LINE
8
Modulos
10
-8.342685394115751
20
-31.377601942533754
30
6
11
-8.342685394115751
21
-31.377601942533754
31
12
0
LINE
8
Modulos
10
-4.138203317847179
20
-33.119155441278785
30
6
11
0.06627875842139375
21
-31.377601942533754
31
6
0
LINE
8
Modulos
10
-4.138203317847179
20
-33.119155441278785
30
12
11
0.06627875842139375
21
-31.377601942533754
31
12
0
LINE
8
Modulos
10
-4.138203317847179
20
-33.119155441278785
30
6
11
-4.138203317847179
21
-33.119155441278785
31
12
0
LINE
8
Modulos
10
0.06627875842139375
20
-31.377601942533754
30
6
11
1.8078322571664271
21
-27.173119866265182
31
6
0
LINE
8
Modulos
10
0.06627875842139375
20
-31.377601942533754
30
12
11
1.8078322571664271
21
-27.173119866265182
31
12
0
LINE
8
Modulos
10
0.06627875842139375
20
-31.377601942533754
30
6
11
0.06627875842139375
21
-31.377601942533754
31
12
0
LINE
8
Modulos
10
22.159991607199537
20
-18.734935204935844
30
18
11
20.418438108454502
21
-14.530453128667272
31
18
0
LINE
8
Modulos
10
22.159991607199537
20
-18.734935204935844
30
24
11
20.418438108454502
21
-14.530453128667272
31
24
0
LINE
8
Modulos
10
22.159991607199537
20
-18.734935204935844
30
18
11
22.159991607199537
21
-18.734935204935844
31
24
0
LINE
8
Modulos
10
20.418438108454502
20
-14.530453128667272
30
18
11
16.21395603218593
21
-12.78889962992224
31
18
0
LINE
8
Modulos
10
20.418438108454502
20
-14.530453128667272
30
24
11
16.21395603218593
21
-12.78889962992224
31
24
0
LINE
8
Modulos
10
20.418438108454502
20
-14.530453128667272
30
18
11
20.418438108454502
21
-14.530453128667272
31
24
0
LINE
8
Modulos
10
16.21395603218593
20
-12.78889962992224
30
18
11
12.009473955917358
21
-14.530453128667272
31
18
0
LINE
8
Modulos
10
16.21395603218593
20
-12.78889962992224
30
24
11
12.009473955917358
21
-14.530453128667272
31
24
0
LINE
8
Modulos
10
16.21395603218593
20
-12.78889962992224
30
18
11
16.21395603218593
21
-12.78889962992224
31
24
0
LINE
8
Modulos
10
12.009473955917358
20
-14.530453128667272
30
18
11
10.267920457172325
21
-18.734935204935844
31
18
0
LINE
8
Modulos
10
12.009473955917358
20
-14.530453128667272
30
24
11
10.267920457172325
21
-18.734935204935844
31
24
0
LINE
8
Modulos
10
12.009473955917358
20
-14.530453128667272
30
18
11
12.009473955917358
21
-14.530453128667272
31
24
0
LINE
8
Modulos
10
10.267920457172325
20
-18.734935204935844
30
18
11
12.009473955917358
21
-22.939417281204417
31
18
0
LINE
8
Modulos
10
10.267920457172325
20
-18.734935204935844
30
24
11
12.009473955917358
21
-22.939417281204417
31
24
0
LINE
8
Modulos
10
10.267920457172325
20
-18.734935204935844
30
18
11
10.267920457172325
21
-18.734935204935844
31
24
0
LINE
8
Modulos
10
12.009473955917358
20
-22.939417281204417
30
18
11
16.21395603218593
21
-24.680970779949448
31
18
0
LINE
8
Modulos
10
12.009473955917358
20
-22.939417281204417
30
24
11
16.21395603218593
21
-24.680970779949448
31
24
0
LINE
8
Modulos
10
12.009473955917358
20
-22.939417281204417
30
18
11
12.009473955917358
21
-22.939417281204417
31
24
0
LINE
8
Modulos
10
16.21395603218593
20
-24.680970779949448
30
18
11
20.418438108454502
21
-22.939417281204417
31
18
0
LINE
8
Modulos
10
16.21395603218593
20
-24.680970779949448
30
24
11
20.418438108454502
21
-22.939417281204417
31
24
0
LINE
8
Modulos
10
16.21395603218593
20
-24.680970779949448
30
18
11
16.21395603218593
21
-24.680970779949448
31
24
0
LINE
8
Modulos
10
20.418438108454502
20
-22.939417281204417
30
18
11
22.159991607199537
21
-18.734935204935844
31
18
0
LINE
8
Modulos
10
20.418438108454502
20
-22.939417281204417
30
24
11
22.159991607199537
21
-18.734935204935844
31
24
0
LINE
8
Modulos
10
20.418438108454502
20
-22.939417281204417
30
18
11
20.418438108454502
21
-22.939417281204417
31
24
0
LINE
8
Modulos
10
32.34587144345907
20
-14.521088651125844
30
6
11
30.604317944714033
21
-10.316606574857271
31
6
0
LINE
8
Modulos
10
32.34587144345907
20
-14.521088651125844
30
12
11
30.604317944714033
21
-10.316606574857271
31
12
0
LINE
8
Modulos
10
32.34587144345907
20
-14.521088651125844
30
6
11
32.34587144345907
21
-14.521088651125844
31
12
0
LINE
8
Modulos
10
30.604317944714033
20
-10.316606574857271
30
6
11
26.39983586844546
21
-8.575053076112239
31
6
0
LINE
8
Modulos
10
30.604317944714033
20
-10.316606574857271
30
12
11
26.39983586844546
21
-8.575053076112239
31
12
0
LINE
8
Modulos
10
30.604317944714033
20
-10.316606574857271
30
6
11
30.604317944714033
21
-10.316606574857271
31
12
0
LINE
8
Modulos
10
26.39983586844546
20
-8.575053076112239
30
6
11
22.19535379217689
21
-10.316606574857271
31
6
0
LINE
8
Modulos
10
26.39983586844546
20
-8.575053076112239
30
12
11
22.19535379217689
21
-10.316606574857271
31
12
0
LINE
8
Modulos
10
26.39983586844546
20
-8.575053076112239
30
6
11
26.39983586844546
21
-8.575053076112239
31
12
0
LINE
8
Modulos
10
22.19535379217689
20
-10.316606574857271
30
6
11
20.453800293431854
21
-14.521088651125844
31
6
0
LINE
8
Modulos
10
22.19535379217689
20
-10.316606574857271
30
12
11
20.453800293431854
21
-14.521088651125844
31
12
0
LINE
8
Modulos
10
22.19535379217689
20
-10.316606574857271
30
6
11
22.19535379217689
21
-10.316606574857271
31
12
0
LINE
8
Modulos
10
20.453800293431854
20
-14.521088651125844
30
6
11
22.19535379217689
21
-18.725570727394416
31
6
0
LINE
8
Modulos
10
20.453800293431854
20
-14.521088651125844
30
12
11
22.19535379217689
21
-18.725570727394416
31
12
0
LINE
8
Modulos
10
20.453800293431854
20
-14.521088651125844
30
6
11
20.453800293431854
21
-14.521088651125844
31
12
0
LINE
8
Modulos
10
22.19535379217689
20
-18.725570727394416
30
6
11
26.39983586844546
21
-20.467124226139447
31
6
0
LINE
8
Modulos
10
22.19535379217689
20
-18.725570727394416
30
12
11
26.39983586844546
21
-20.467124226139447
31
12
0
LINE
8
Modulos
10
22.19535379217689
20
-18.725570727394416
30
6
11
22.19535379217689
21
-18.725570727394416
31
12
0
LINE
8
Modulos
10
26.39983586844546
20
-20.467124226139447
30
6
11
30.604317944714033
21
-18.725570727394416
31
6
0
LINE
8
Modulos
10
26.39983586844546
20
-20.467124226139447
30
12
11
30.604317944714033
21
-18.725570727394416
31
12
0
LINE
8
Modulos
10
26.39983586844546
20
-20.467124226139447
30
6
11
26.39983586844546
21
-20.467124226139447
31
12
0
LINE
8
Modulos
10
30.604317944714033
20
-18.725570727394416
30
6
11
32.34587144345907
21
-14.521088651125844
31
6
0
LINE
8
Modulos
10
30.604317944714033
20
-18.725570727394416
30
12
11
32.34587144345907
21
-14.521088651125844
31
12
0
LINE
8
Modulos
10
30.604317944714033
20
-18.725570727394416
30
6
11
30.604317944714033
21
-18.725570727394416
31
12
0
LINE
8
Modulos
10
13.682068378894837
20
6.383373850438766
30
0
11
11.940514880149802
21
10.587855926707338
31
0
0
LINE
8
Modulos
10
13.682068378894837
20
6.383373850438766
30
6
11
11.940514880149802
21
10.587855926707338
31
6
0
LINE
8
Modulos
10
13.682068378894837
20
6.383373850438766
30
0
11
13.682068378894837
21
6.383373850438766
31
6
0
LINE
8
Modulos
10
11.940514880149802
20
10.587855926707338
30
0
11
7.736032803881231
21
12.329409425452372
31
0
0
LINE
8
Modulos
10
11.940514880149802
20
10.587855926707338
30
6
11
7.736032803881231
21
12.329409425452372
31
6
0
LINE
8
Modulos
10
11.940514880149802
20
10.587855926707338
30
0
11
11.940514880149802
21
10.587855926707338
31
6
0
LINE
8
Modulos
10
7.736032803881231
20
12.329409425452372
30
0
11
3.5315507276126583
21
10.587855926707338
31
0
0
LINE
8
Modulos
10
7.736032803881231
20
12.329409425452372
30
6
11
3.5315507276126583
21
10.587855926707338
31
6
0
LINE
8
Modulos
10
7.736032803881231
20
12.329409425452372
30
0
11
7.736032803881231
21
12.329409425452372
31
6
0
LINE
8
Modulos
10
3.5315507276126583
20
10.587855926707338
30
0
11
1.7899972288676258
21
6.383373850438767
31
0
0
LINE
8
Modulos
10
3.5315507276126583
20
10.587855926707338
30
6
11
1.7899972288676258
21
6.383373850438767
31
6
0
LINE
8
Modulos
10
3.5315507276126583
20
10.587855926707338
30
0
11
3.5315507276126583
21
10.587855926707338
31
6
0
LINE
8
Modulos
10
1.7899972288676258
20
6.383373850438767
30
0
11
3.5315507276126574
21
2.178891774170194
31
0
0
LINE
8
Modulos
10
1.7899972288676258
20
6.383373850438767
30
6
11
3.5315507276126574
21
2.178891774170194
31
6
0
LINE
8
Modulos
10
1.7899972288676258
20
6.383373850438767
30
0
11
1.7899972288676258
21
6.383373850438767
31
6
0
LINE
8
Modulos
10
3.5315507276126574
20
2.178891774170194
30
0
11
7.73603280388123
21
0.43733827542516135
31
0
0
LINE
8
Modulos
10
3.5315507276126574
20
2.178891774170194
30
6
11
7.73603280388123
21
0.43733827542516135
31
6
0
LINE
8
Modulos
10
3.5315507276126574
20
2.178891774170194
30
0
11
3.5315507276126574
21
2.178891774170194
31
6
0
LINE
8
Modulos
10
7.73603280388123
20
0.43733827542516135
30
0
11
11.940514880149802
21
2.178891774170193
31
0
0
LINE
8
Modulos
10
7.73603280388123
20
0.43733827542516135
30
6
11
11.940514880149802
21
2.178891774170193
31
6
0
LINE
8
Modulos
10
7.73603280388123
20
0.43733827542516135
30
0
11
7.73603280388123
21
0.43733827542516135
31
6
0
LINE
8
Modulos
10
11.940514880149802
20
2.178891774170193
30
0
11
13.682068378894837
21
6.383373850438766
31
0
0
LINE
8
Modulos
10
11.940514880149802
20
2.178891774170193
30
6
11
13.682068378894837
21
6.383373850438766
31
6
0
LINE
8
Modulos
10
11.940514880149802
20
2.178891774170193
30
0
11
11.940514880149802
21
2.178891774170193
31
6
0
LINE
8
Modulos
10
8.8727217158565
20
3.778581247619104
30
0
11
7.131168217111468
21
7.983063323887676
31
0
0
LINE
8
Modulos
10
8.8727217158565
20
3.778581247619104
30
6
11
7.131168217111468
21
7.983063323887676
31
6
0
LINE
8
Modulos
10
8.8727217158565
20
3.778581247619104
30
0
11
8.8727217158565
21
3.778581247619104
31
6
0
LINE
8
Modulos
10
7.131168217111468
20
7.983063323887676
30
0
11
2.926686140842896
21
9.724616822632708
31
0
0
LINE
8
Modulos
10
7.131168217111468
20
7.983063323887676
30
6
11
2.926686140842896
21
9.724616822632708
31
6
0
LINE
8
Modulos
10
7.131168217111468
20
7.983063323887676
30
0
11
7.131168217111468
21
7.983063323887676
31
6
0
LINE
8
Modulos
10
2.926686140842896
20
9.724616822632708
30
0
11
-1.2777959354256767
21
7.983063323887676
31
0
0
LINE
8
Modulos
10
2.926686140842896
20
9.724616822632708
30
6
11
-1.2777959354256767
21
7.983063323887676
31
6
0
LINE
8
Modulos
10
2.926686140842896
20
9.724616822632708
30
0
11
2.926686140842896
21
9.724616822632708
31
6
0
LINE
8
Modulos
10
-1.2777959354256767
20
7.983063323887676
30
0
11
-3.0193494341707092
21
3.7785812476191047
31
0
0
LINE
8
Modulos
10
-1.2777959354256767
20
7.983063323887676
30
6
11
-3.0193494341707092
21
3.7785812476191047
31
6
0
LINE
8
Modulos
10
-1.2777959354256767
20
7.983063323887676
30
0
11
-1.2777959354256767
21
7.983063323887676
31
6
0
LINE
8
Modulos
10
-3.0193494341707092
20
3.7785812476191047
30
0
11
-1.2777959354256776
21
-0.42590082864946854
31
0
0
LINE
8
Modulos
10
-3.0193494341707092
20
3.7785812476191047
30
6
11
-1.2777959354256776
21
-0.42590082864946854
31
6
0
LINE
8
Modulos
10
-3.0193494341707092
20
3.7785812476191047
30
0
11
-3.0193494341707092
21
3.7785812476191047
31
6
0
LINE
8
Modulos
10
-1.2777959354256776
20
-0.42590082864946854
30
0
11
2.926686140842895
21
-2.167454327394501
31
0
0
LINE
8
Modulos
10
-1.2777959354256776
20
-0.42590082864946854
30
6
11
2.926686140842895
21
-2.167454327394501
31
6
0
LINE
8
Modulos
10
-1.2777959354256776
20
-0.42590082864946854
30
0
11
-1.2777959354256776
21
-0.42590082864946854
31
6
0
LINE
8
Modulos
10
2.926686140842895
20
-2.167454327394501
30
0
11
7.131168217111467
21
-0.42590082864946943
31
0
0
LINE
8
Modulos
10
2.926686140842895
20
-2.167454327394501
30
6
11
7.131168217111467
21
-0.42590082864946943
31
6
0
LINE
8
Modulos
10
2.926686140842895
20
-2.167454327394501
30
0
11
2.926686140842895
21
-2.167454327394501
31
6
0
LINE
8
Modulos
10
7.131168217111467
20
-0.42590082864946943
30
0
11
8.8727217158565
21
3.778581247619104
31
0
0
LINE
8
Modulos
10
7.131168217111467
20
-0.42590082864946943
30
6
11
8.8727217158565
21
3.778581247619104
31
6
0
LINE
8
Modulos
10
7.131168217111467
20
-0.42590082864946943
30
0
11
7.131168217111467
21
-0.42590082864946943
31
6
0
LINE
8
Modulos
10
-32.74306178137383
20
-5.659740236099211
30
30
11
-34.48461528011886
21
-1.4552581598306382
31
30
0
LINE
8
Modulos
10
-32.74306178137383
20
-5.659740236099211
30
36
11
-34.48461528011886
21
-1.4552581598306382
31
36
0
LINE
8
Modulos
10
-32.74306178137383
20
-5.659740236099211
30
30
11
-32.74306178137383
21
-5.659740236099211
31
36
0
LINE
8
Modulos
10
-34.48461528011886
20
-1.4552581598306382
30
30
11
-38.689097356387435
21
0.2862953389143943
31
30
0
LINE
8
Modulos
10
-34.48461528011886
20
-1.4552581598306382
30
36
11
-38.689097356387435
21
0.2862953389143943
31
36
0
LINE
8
Modulos
10
-34.48461528011886
20
-1.4552581598306382
30
30
11
-34.48461528011886
21
-1.4552581598306382
31
36
0
LINE
8
Modulos
10
-38.689097356387435
20
0.2862953389143943
30
30
11
-42.89357943265601
21
-1.4552581598306382
31
30
0
LINE
8
Modulos
10
-38.689097356387435
20
0.2862953389143943
30
36
11
-42.89357943265601
21
-1.4552581598306382
31
36
0
LINE
8
Modulos
10
-38.689097356387435
20
0.2862953389143943
30
30
11
-38.689097356387435
21
0.2862953389143943
31
36
0
LINE
8
Modulos
10
-42.89357943265601
20
-1.4552581598306382
30
30
11
-44.63513293140104
21
-5.65974023609921
31
30
0
LINE
8
Modulos
10
-42.89357943265601
20
-1.4552581598306382
30
36
11
-44.63513293140104
21
-5.65974023609921
31
36
0
LINE
8
Modulos
10
-42.89357943265601
20
-1.4552581598306382
30
30
11
-42.89357943265601
21
-1.4552581598306382
31
36
0
LINE
8
Modulos
10
-44.63513293140104
20
-5.65974023609921
30
30
11
-42.89357943265601
21
-9.864222312367783
31
30
0
LINE
8
Modulos
10
-44.63513293140104
20
-5.65974023609921
30
36
11
-42.89357943265601
21
-9.864222312367783
31
36
0
LINE
8
Modulos
10
-44.63513293140104
20
-5.65974023609921
30
30
11
-44.63513293140104
21
-5.65974023609921
31
36
0
LINE
8
Modulos
10
-42.89357943265601
20
-9.864222312367783
30
30
11
-38.689097356387435
21
-11.605775811112816
31
30
0
LINE
8
Modulos
10
-42.89357943265601
20
-9.864222312367783
30
36
11
-38.689097356387435
21
-11.605775811112816
31
36
0
LINE
8
Modulos
10
-42.89357943265601
20
-9.864222312367783
30
30
11
-42.89357943265601
21
-9.864222312367783
31
36
0
LINE
8
Modulos
10
-38.689097356387435
20
-11.605775811112816
30
30
11
-34.48461528011887
21
-9.864222312367783
31
30
0
LINE
8
Modulos
10
-38.689097356387435
20
-11.605775811112816
30
36
11
-34.48461528011887
21
-9.864222312367783
31
36
0
LINE
8
Modulos
10
-38.689097356387435
20
-11.605775811112816
30
30
11
-38.689097356387435
21
-11.605775811112816
31
36
0
LINE
8
Modulos
10
-34.48461528011887
20
-9.864222312367783
30
30
11
-32.74306178137383
21
-5.659740236099211
31
30
0
LINE
8
Modulos
10
-34.48461528011887
20
-9.864222312367783
30
36
11
-32.74306178137383
21
-5.659740236099211
31
36
0
LINE
8
Modulos
10
-34.48461528011887
20
-9.864222312367783
30
30
11
-34.48461528011887
21
-9.864222312367783
31
36
0
LINE
8
Modulos
10
12.0245341298092
20
-23.132369999407118
30
6
11
10.28298063106417
21
-18.927887923138545
31
6
0
LINE
8
Modulos
10
12.0245341298092
20
-23.132369999407118
30
12
11
10.28298063106417
21
-18.927887923138545
31
12
0
LINE
8
Modulos
10
12.0245341298092
20
-23.132369999407118
30
6
11
12.0245341298092
21
-23.132369999407118
31
12
0
LINE
8
Modulos
10
10.28298063106417
20
-18.927887923138545
30
6
11
6.078498554795597
21
-17.186334424393515
31
6
0
LINE
8
Modulos
10
10.28298063106417
20
-18.927887923138545
30
12
11
6.078498554795597
21
-17.186334424393515
31
12
0
LINE
8
Modulos
10
10.28298063106417
20
-18.927887923138545
30
6
11
10.28298063106417
21
-18.927887923138545
31
12
0
LINE
8
Modulos
10
6.078498554795597
20
-17.186334424393515
30
6
11
1.8740164785270244
21
-18.927887923138545
31
6
0
LINE
8
Modulos
10
6.078498554795597
20
-17.186334424393515
30
12
11
1.8740164785270244
21
-18.927887923138545
31
12
0
LINE
8
Modulos
10
6.078498554795597
20
-17.186334424393515
30
6
11
6.078498554795597
21
-17.186334424393515
31
12
0
LINE
8
Modulos
10
1.8740164785270244
20
-18.927887923138545
30
6
11
0.13246297978199184
21
-23.132369999407118
31
6
0
LINE
8
Modulos
10
1.8740164785270244
20
-18.927887923138545
30
12
11
0.13246297978199184
21
-23.132369999407118
31
12
0
LINE
8
Modulos
10
1.8740164785270244
20
-18.927887923138545
30
6
11
1.8740164785270244
21
-18.927887923138545
31
12
0
LINE
8
Modulos
10
0.13246297978199184
20
-23.132369999407118
30
6
11
1.8740164785270235
21
-27.33685207567569
31
6
0
LINE
8
Modulos
10
0.13246297978199184
20
-23.132369999407118
30
12
11
1.8740164785270235
21
-27.33685207567569
31
12
0
LINE
8
Modulos
10
0.13246297978199184
20
-23.132369999407118
30
6
11
0.13246297978199184
21
-23.132369999407118
31
12
0
LINE
8
Modulos
10
1.8740164785270235
20
-27.33685207567569
30
6
11
6.078498554795596
21
-29.07840557442072
31
6
0
LINE
8
Modulos
10
1.8740164785270235
20
-27.33685207567569
30
12
11
6.078498554795596
21
-29.07840557442072
31
12
0
LINE
8
Modulos
10
1.8740164785270235
20
-27.33685207567569
30
6
11
1.8740164785270235
21
-27.33685207567569
31
12
0
LINE
8
Modulos
10
6.078498554795596
20
-29.07840557442072
30
6
11
10.282980631064168
21
-27.33685207567569
31
6
0
LINE
8
Modulos
10
6.078498554795596
20
-29.07840557442072
30
12
11
10.282980631064168
21
-27.33685207567569
31
12
0
LINE
8
Modulos
10
6.078498554795596
20
-29.07840557442072
30
6
11
6.078498554795596
21
-29.07840557442072
31
12
0
LINE
8
Modulos
10
10.282980631064168
20
-27.33685207567569
30
6
11
12.0245341298092
21
-23.132369999407118
31
6
0
LINE
8
Modulos
10
10.282980631064168
20
-27.33685207567569
30
12
11
12.0245341298092
21
-23.132369999407118
31
12
0
LINE
8
Modulos
10
10.282980631064168
20
-27.33685207567569
30
6
11
10.282980631064168
21
-27.33685207567569
31
12
0
LINE
8
Modulos
10
8.967057761002847
20
7.807080499632169
30
0
11
7.2255042622578145
21
12.011562575900742
31
0
0
LINE
8
Modulos
10
8.967057761002847
20
7.807080499632169
30
6
11
7.2255042622578145
21
12.011562575900742
31
6
0
LINE
8
Modulos
10
8.967057761002847
20
7.807080499632169
30
0
11
8.967057761002847
21
7.807080499632169
31
6
0
LINE
8
Modulos
10
7.2255042622578145
20
12.011562575900742
30
0
11
3.021022185989242
21
13.753116074645774
31
0
0
LINE
8
Modulos
10
7.2255042622578145
20
12.011562575900742
30
6
11
3.021022185989242
21
13.753116074645774
31
6
0
LINE
8
Modulos
10
7.2255042622578145
20
12.011562575900742
30
0
11
7.2255042622578145
21
12.011562575900742
31
6
0
LINE
8
Modulos
10
3.021022185989242
20
13.753116074645774
30
0
11
-1.1834598902793307
21
12.011562575900742
31
0
0
LINE
8
Modulos
10
3.021022185989242
20
13.753116074645774
30
6
11
-1.1834598902793307
21
12.011562575900742
31
6
0
LINE
8
Modulos
10
3.021022185989242
20
13.753116074645774
30
0
11
3.021022185989242
21
13.753116074645774
31
6
0
LINE
8
Modulos
10
-1.1834598902793307
20
12.011562575900742
30
0
11
-2.9250133890243633
21
7.80708049963217
31
0
0
LINE
8
Modulos
10
-1.1834598902793307
20
12.011562575900742
30
6
11
-2.9250133890243633
21
7.80708049963217
31
6
0
LINE
8
Modulos
10
-1.1834598902793307
20
12.011562575900742
30
0
11
-1.1834598902793307
21
12.011562575900742
31
6
0
LINE
8
Modulos
10
-2.9250133890243633
20
7.80708049963217
30
0
11
-1.1834598902793316
21
3.602598423363597
31
0
0
LINE
8
Modulos
10
-2.9250133890243633
20
7.80708049963217
30
6
11
-1.1834598902793316
21
3.602598423363597
31
6
0
LINE
8
Modulos
10
-2.9250133890243633
20
7.80708049963217
30
0
11
-2.9250133890243633
21
7.80708049963217
31
6
0
LINE
8
Modulos
10
-1.1834598902793316
20
3.602598423363597
30
0
11
3.0210221859892408
21
1.8610449246185645
31
0
0
LINE
8
Modulos
10
-1.1834598902793316
20
3.602598423363597
30
6
11
3.0210221859892408
21
1.8610449246185645
31
6
0
LINE
8
Modulos
10
-1.1834598902793316
20
3.602598423363597
30
0
11
-1.1834598902793316
21
3.602598423363597
31
6
0
LINE
8
Modulos
10
3.0210221859892408
20
1.8610449246185645
30
0
11
7.225504262257813
21
3.602598423363596
31
0
0
LINE
8
Modulos
10
3.0210221859892408
20
1.8610449246185645
30
6
11
7.225504262257813
21
3.602598423363596
31
6
0
LINE
8
Modulos
10
3.0210221859892408
20
1.8610449246185645
30
0
11
3.0210221859892408
21
1.8610449246185645
31
6
0
LINE
8
Modulos
10
7.225504262257813
20
3.602598423363596
30
0
11
8.967057761002847
21
7.807080499632169
31
0
0
LINE
8
Modulos
10
7.225504262257813
20
3.602598423363596
30
6
11
8.967057761002847
21
7.807080499632169
31
6
0
LINE
8
Modulos
10
7.225504262257813
20
3.602598423363596
30
0
11
7.225504262257813
21
3.602598423363596
31
6
0
LINE
8
Modulos
10
13.350138754388771
20
7.614352306185817
30
0
11
11.608585255643739
21
11.81883438245439
31
0
0
LINE
8
Modulos
10
13.350138754388771
20
7.614352306185817
30
6
11
11.608585255643739
21
11.81883438245439
31
6
0
LINE
8
Modulos
10
13.350138754388771
20
7.614352306185817
30
0
11
13.350138754388771
21
7.614352306185817
31
6
0
LINE
8
Modulos
10
11.608585255643739
20
11.81883438245439
30
0
11
7.404103179375166
21
13.560387881199421
31
0
0
LINE
8
Modulos
10
11.608585255643739
20
11.81883438245439
30
6
11
7.404103179375166
21
13.560387881199421
31
6
0
LINE
8
Modulos
10
11.608585255643739
20
11.81883438245439
30
0
11
11.608585255643739
21
11.81883438245439
31
6
0
LINE
8
Modulos
10
7.404103179375166
20
13.560387881199421
30
0
11
3.199621103106594
21
11.81883438245439
31
0
0
LINE
8
Modulos
10
7.404103179375166
20
13.560387881199421
30
6
11
3.199621103106594
21
11.81883438245439
31
6
0
LINE
8
Modulos
10
7.404103179375166
20
13.560387881199421
30
0
11
7.404103179375166
21
13.560387881199421
31
6
0
LINE
8
Modulos
10
3.199621103106594
20
11.81883438245439
30
0
11
1.4580676043615615
21
7.614352306185818
31
0
0
LINE
8
Modulos
10
3.199621103106594
20
11.81883438245439
30
6
11
1.4580676043615615
21
7.614352306185818
31
6
0
LINE
8
Modulos
10
3.199621103106594
20
11.81883438245439
30
0
11
3.199621103106594
21
11.81883438245439
31
6
0
LINE
8
Modulos
10
1.4580676043615615
20
7.614352306185818
30
0
11
3.199621103106593
21
3.409870229917245
31
0
0
LINE
8
Modulos
10
1.4580676043615615
20
7.614352306185818
30
6
11
3.199621103106593
21
3.409870229917245
31
6
0
LINE
8
Modulos
10
1.4580676043615615
20
7.614352306185818
30
0
11
1.4580676043615615
21
7.614352306185818
31
6
0
LINE
8
Modulos
10
3.199621103106593
20
3.409870229917245
30
0
11
7.4041031793751655
21
1.6683167311722125
31
0
0
LINE
8
Modulos
10
3.199621103106593
20
3.409870229917245
30
6
11
7.4041031793751655
21
1.6683167311722125
31
6
0
LINE
8
Modulos
10
3.199621103106593
20
3.409870229917245
30
0
11
3.199621103106593
21
3.409870229917245
31
6
0
LINE
8
Modulos
10
7.4041031793751655
20
1.6683167311722125
30
0
11
11.608585255643739
21
3.409870229917244
31
0
0
LINE
8
Modulos
10
7.4041031793751655
20
1.6683167311722125
30
6
11
11.608585255643739
21
3.409870229917244
31
6
0
LINE
8
Modulos
10
7.4041031793751655
20
1.6683167311722125
30
0
11
7.4041031793751655
21
1.6683167311722125
31
6
0
LINE
8
Modulos
10
11.608585255643739
20
3.409870229917244
30
0
11
13.350138754388771
21
7.614352306185817
31
0
0
LINE
8
Modulos
10
11.608585255643739
20
3.409870229917244
30
6
11
13.350138754388771
21
7.614352306185817
31
6
0
LINE
8
Modulos
10
11.608585255643739
20
3.409870229917244
30
0
11
11.608585255643739
21
3.409870229917244
31
6
0
LINE
8
Modulos
10
10.121035466466731
20
6.7850940916624225
30
0
11
8.379481967721699
21
10.989576167930995
31
0
0
LINE
8
Modulos
10
10.121035466466731
20
6.7850940916624225
30
6
11
8.379481967721699
21
10.989576167930995
31
6
0
LINE
8
Modulos
10
10.121035466466731
20
6.7850940916624225
30
0
11
10.121035466466731
21
6.7850940916624225
31
6
0
LINE
8
Modulos
10
8.379481967721699
20
10.989576167930995
30
0
11
4.174999891453126
21
12.731129666676027
31
0
0
LINE
8
Modulos
10
8.379481967721699
20
10.989576167930995
30
6
11
4.174999891453126
21
12.731129666676027
31
6
0
LINE
8
Modulos
10
8.379481967721699
20
10.989576167930995
30
0
11
8.379481967721699
21
10.989576167930995
31
6
0
LINE
8
Modulos
10
4.174999891453126
20
12.731129666676027
30
0
11
-0.02948218481544629
21
10.989576167930995
31
0
0
LINE
8
Modulos
10
4.174999891453126
20
12.731129666676027
30
6
11
-0.02948218481544629
21
10.989576167930995
31
6
0
LINE
8
Modulos
10
4.174999891453126
20
12.731129666676027
30
0
11
4.174999891453126
21
12.731129666676027
31
6
0
LINE
8
Modulos
10
-0.02948218481544629
20
10.989576167930995
30
0
11
-1.7710356835604788
21
6.785094091662423
31
0
0
LINE
8
Modulos
10
-0.02948218481544629
20
10.989576167930995
30
6
11
-1.7710356835604788
21
6.785094091662423
31
6
0
LINE
8
Modulos
10
-0.02948218481544629
20
10.989576167930995
30
0
11
-0.02948218481544629
21
10.989576167930995
31
6
0
LINE
8
Modulos
10
-1.7710356835604788
20
6.785094091662423
30
0
11
-0.029482184815447177
21
2.58061201539385
31
0
0
LINE
8
Modulos
10
-1.7710356835604788
20
6.785094091662423
30
6
11
-0.029482184815447177
21
2.58061201539385
31
6
0
LINE
8
Modulos
10
-1.7710356835604788
20
6.785094091662423
30
0
11
-1.7710356835604788
21
6.785094091662423
31
6
0
LINE
8
Modulos
10
-0.029482184815447177
20
2.58061201539385
30
0
11
4.174999891453125
21
0.8390585166488176
31
0
0
LINE
8
Modulos
10
-0.029482184815447177
20
2.58061201539385
30
6
11
4.174999891453125
21
0.8390585166488176
31
6
0
LINE
8
Modulos
10
-0.029482184815447177
20
2.58061201539385
30
0
11
-0.029482184815447177
21
2.58061201539385
31
6
0
LINE
8
Modulos
10
4.174999891453125
20
0.8390585166488176
30
0
11
8.379481967721699
21
2.580612015393849
31
0
0
LINE
8
Modulos
10
4.174999891453125
20
0.8390585166488176
30
6
11
8.379481967721699
21
2.580612015393849
31
6
0
LINE
8
Modulos
10
4.174999891453125
20
0.8390585166488176
30
0
11
4.174999891453125
21
0.8390585166488176
31
6
0
LINE
8
Modulos
10
8.379481967721699
20
2.580612015393849
30
0
11
10.121035466466731
21
6.7850940916624225
31
0
0
LINE
8
Modulos
10
8.379481967721699
20
2.580612015393849
30
6
11
10.121035466466731
21
6.7850940916624225
31
6
0
LINE
8
Modulos
10
8.379481967721699
20
2.580612015393849
30
0
11
8.379481967721699
21
2.580612015393849
31
6
0
LINE
8
Modulos
10
12.292126976007433
20
3.4710266605077402
30
0
11
10.5505734772624
21
7.675508736776313
31
0
0
LINE
8
Modulos
10
12.292126976007433
20
3.4710266605077402
30
6
11
10.5505734772624
21
7.675508736776313
31
6
0
LINE
8
Modulos
10
12.292126976007433
20
3.4710266605077402
30
0
11
12.292126976007433
21
3.4710266605077402
31
6
0
LINE
8
Modulos
10
10.5505734772624
20
7.675508736776313
30
0
11
6.346091400993828
21
9.417062235521346
31
0
0
LINE
8
Modulos
10
10.5505734772624
20
7.675508736776313
30
6
11
6.346091400993828
21
9.417062235521346
31
6
0
LINE
8
Modulos
10
10.5505734772624
20
7.675508736776313
30
0
11
10.5505734772624
21
7.675508736776313
31
6
0
LINE
8
Modulos
10
6.346091400993828
20
9.417062235521346
30
0
11
2.1416093247252554
21
7.675508736776313
31
0
0
LINE
8
Modulos
10
6.346091400993828
20
9.417062235521346
30
6
11
2.1416093247252554
21
7.675508736776313
31
6
0
LINE
8
Modulos
10
6.346091400993828
20
9.417062235521346
30
0
11
6.346091400993828
21
9.417062235521346
31
6
0
LINE
8
Modulos
10
2.1416093247252554
20
7.675508736776313
30
0
11
0.40005582598022293
21
3.471026660507741
31
0
0
LINE
8
Modulos
10
2.1416093247252554
20
7.675508736776313
30
6
11
0.40005582598022293
21
3.471026660507741
31
6
0
LINE
8
Modulos
10
2.1416093247252554
20
7.675508736776313
30
0
11
2.1416093247252554
21
7.675508736776313
31
6
0
LINE
8
Modulos
10
0.40005582598022293
20
3.471026660507741
30
0
11
2.1416093247252546
21
-0.7334554157608322
31
0
0
LINE
8
Modulos
10
0.40005582598022293
20
3.471026660507741
30
6
11
2.1416093247252546
21
-0.7334554157608322
31
6
0
LINE
8
Modulos
10
0.40005582598022293
20
3.471026660507741
30
0
11
0.40005582598022293
21
3.471026660507741
31
6
0
LINE
8
Modulos
10
2.1416093247252546
20
-0.7334554157608322
30
0
11
6.346091400993827
21
-2.4750089145058647
31
0
0
LINE
8
Modulos
10
2.1416093247252546
20
-0.7334554157608322
30
6
11
6.346091400993827
21
-2.4750089145058647
31
6
0
LINE
8
Modulos
10
2.1416093247252546
20
-0.7334554157608322
30
0
11
2.1416093247252546
21
-0.7334554157608322
31
6
0
LINE
8
Modulos
10
6.346091400993827
20
-2.4750089145058647
30
0
11
10.5505734772624
21
-0.7334554157608331
31
0
0
LINE
8
Modulos
10
6.346091400993827
20
-2.4750089145058647
30
6
11
10.5505734772624
21
-0.7334554157608331
31
6
0
LINE
8
Modulos
10
6.346091400993827
20
-2.4750089145058647
30
0
11
6.346091400993827
21
-2.4750089145058647
31
6
0
LINE
8
Modulos
10
10.5505734772624
20
-0.7334554157608331
30
0
11
12.292126976007433
21
3.4710266605077402
31
0
0
LINE
8
Modulos
10
10.5505734772624
20
-0.7334554157608331
30
6
11
12.292126976007433
21
3.4710266605077402
31
6
0
LINE
8
Modulos
10
10.5505734772624
20
-0.7334554157608331
30
0
11
10.5505734772624
21
-0.7334554157608331
31
6
0
LINE
8
Modulos
10
6.899256345729215
20
-25.212144152887895
30
0
11
5.157702846984183
21
-21.007662076619322
31
0
0
LINE
8
Modulos
10
6.899256345729215
20
-25.212144152887895
30
6
11
5.157702846984183
21
-21.007662076619322
31
6
0
LINE
8
Modulos
10
6.899256345729215
20
-25.212144152887895
30
0
11
6.899256345729215
21
-25.212144152887895
31
6
0
LINE
8
Modulos
10
5.157702846984183
20
-21.007662076619322
30
0
11
0.9532207707156107
21
-19.26610857787429
31
0
0
LINE
8
Modulos
10
5.157702846984183
20
-21.007662076619322
30
6
11
0.9532207707156107
21
-19.26610857787429
31
6
0
LINE
8
Modulos
10
5.157702846984183
20
-21.007662076619322
30
0
11
5.157702846984183
21
-21.007662076619322
31
6
0
LINE
8
Modulos
10
0.9532207707156107
20
-19.26610857787429
30
0
11
-3.251261305552962
21
-21.007662076619322
31
0
0
LINE
8
Modulos
10
0.9532207707156107
20
-19.26610857787429
30
6
11
-3.251261305552962
21
-21.007662076619322
31
6
0
LINE
8
Modulos
10
0.9532207707156107
20
-19.26610857787429
30
0
11
0.9532207707156107
21
-19.26610857787429
31
6
0
LINE
8
Modulos
10
-3.251261305552962
20
-21.007662076619322
30
0
11
-4.9928148042979945
21
-25.212144152887895
31
0
0
LINE
8
Modulos
10
-3.251261305552962
20
-21.007662076619322
30
6
11
-4.9928148042979945
21
-25.212144152887895
31
6
0
LINE
8
Modulos
10
-3.251261305552962
20
-21.007662076619322
30
0
11
-3.251261305552962
21
-21.007662076619322
31
6
0
LINE
8
Modulos
10
-4.9928148042979945
20
-25.212144152887895
30
0
11
-3.251261305552963
21
-29.416626229156467
31
0
0
LINE
8
Modulos
10
-4.9928148042979945
20
-25.212144152887895
30
6
11
-3.251261305552963
21
-29.416626229156467
31
6
0
LINE
8
Modulos
10
-4.9928148042979945
20
-25.212144152887895
30
0
11
-4.9928148042979945
21
-25.212144152887895
31
6
0
LINE
8
Modulos
10
-3.251261305552963
20
-29.416626229156467
30
0
11
0.9532207707156093
21
-31.158179727901498
31
0
0
LINE
8
Modulos
10
-3.251261305552963
20
-29.416626229156467
30
6
11
0.9532207707156093
21
-31.158179727901498
31
6
0
LINE
8
Modulos
10
-3.251261305552963
20
-29.416626229156467
30
0
11
-3.251261305552963
21
-29.416626229156467
31
6
0
LINE
8
Modulos
10
0.9532207707156093
20
-31.158179727901498
30
0
11
5.157702846984182
21
-29.416626229156467
31
0
0
LINE
8
Modulos
10
0.9532207707156093
20
-31.158179727901498
30
6
11
5.157702846984182
21
-29.416626229156467
31
6
0
LINE
8
Modulos
10
0.9532207707156093
20
-31.158179727901498
30
0
11
0.9532207707156093
21
-31.158179727901498
31
6
0
LINE
8
Modulos
10
5.157702846984182
20
-29.416626229156467
30
0
11
6.899256345729215
21
-25.212144152887895
31
0
0
LINE
8
Modulos
10
5.157702846984182
20
-29.416626229156467
30
6
11
6.899256345729215
21
-25.212144152887895
31
6
0
LINE
8
Modulos
10
5.157702846984182
20
-29.416626229156467
30
0
11
5.157702846984182
21
-29.416626229156467
31
6
0
LINE
8
Modulos
10
17.086337964507713
20
-20.99390605555039
30
12
11
15.344784465762682
21
-16.789423979281818
31
12
0
LINE
8
Modulos
10
17.086337964507713
20
-20.99390605555039
30
18
11
15.344784465762682
21
-16.789423979281818
31
18
0
LINE
8
Modulos
10
17.086337964507713
20
-20.99390605555039
30
12
11
17.086337964507713
21
-20.99390605555039
31
18
0
LINE
8
Modulos
10
15.344784465762682
20
-16.789423979281818
30
12
11
11.14030238949411
21
-15.047870480536785
31
12
0
LINE
8
Modulos
10
15.344784465762682
20
-16.789423979281818
30
18
11
11.14030238949411
21
-15.047870480536785
31
18
0
LINE
8
Modulos
10
15.344784465762682
20
-16.789423979281818
30
12
11
15.344784465762682
21
-16.789423979281818
31
18
0
LINE
8
Modulos
10
11.14030238949411
20
-15.047870480536785
30
12
11
6.935820313225538
21
-16.789423979281818
31
12
0
LINE
8
Modulos
10
11.14030238949411
20
-15.047870480536785
30
18
11
6.935820313225538
21
-16.789423979281818
31
18
0
LINE
8
Modulos
10
11.14030238949411
20
-15.047870480536785
30
12
11
11.14030238949411
21
-15.047870480536785
31
18
0
LINE
8
Modulos
10
6.935820313225538
20
-16.789423979281818
30
12
11
5.194266814480505
21
-20.99390605555039
31
12
0
LINE
8
Modulos
10
6.935820313225538
20
-16.789423979281818
30
18
11
5.194266814480505
21
-20.99390605555039
31
18
0
LINE
8
Modulos
10
6.935820313225538
20
-16.789423979281818
30
12
11
6.935820313225538
21
-16.789423979281818
31
18
0
LINE
8
Modulos
10
5.194266814480505
20
-20.99390605555039
30
12
11
6.935820313225537
21
-25.198388131818962
31
12
0
LINE
8
Modulos
10
5.194266814480505
20
-20.99390605555039
30
18
11
6.935820313225537
21
-25.198388131818962
31
18
0
LINE
8
Modulos
10
5.194266814480505
20
-20.99390605555039
30
12
11
5.194266814480505
21
-20.99390605555039
31
18
0
LINE
8
Modulos
10
6.935820313225537
20
-25.198388131818962
30
12
11
11.140302389494108
21
-26.939941630563993
31
12
0
LINE
8
Modulos
10
6.935820313225537
20
-25.198388131818962
30
18
11
11.140302389494108
21
-26.939941630563993
31
18
0
LINE
8
Modulos
10
6.935820313225537
20
-25.198388131818962
30
12
11
6.935820313225537
21
-25.198388131818962
31
18
0
LINE
8
Modulos
10
11.140302389494108
20
-26.939941630563993
30
12
11
15.344784465762682
21
-25.198388131818962
31
12
0
LINE
8
Modulos
10
11.140302389494108
20
-26.939941630563993
30
18
11
15.344784465762682
21
-25.198388131818962
31
18
0
LINE
8
Modulos
10
11.140302389494108
20
-26.939941630563993
30
12
11
11.140302389494108
21
-26.939941630563993
31
18
0
LINE
8
Modulos
10
15.344784465762682
20
-25.198388131818962
30
12
11
17.086337964507713
21
-20.99390605555039
31
12
0
LINE
8
Modulos
10
15.344784465762682
20
-25.198388131818962
30
18
11
17.086337964507713
21
-20.99390605555039
31
18
0
LINE
8
Modulos
10
15.344784465762682
20
-25.198388131818962
30
12
11
15.344784465762682
21
-25.198388131818962
31
18
0
ENDSEC
0
EOF